<?xml version="1.0" encoding="UTF-8" standalone="no"?>
<!-- Created with Inkscape (http://www.inkscape.org/) -->

<svg
   width="300"
   height="260.05923"
   viewBox="0 0 79.375 68.80734"
   version="1.1"
   id="svg1"
   xmlns="http://www.w3.org/2000/svg"
   xmlns:svg="http://www.w3.org/2000/svg">
  <defs
     id="defs1">
    <rect
       x="4169.6816"
       y="13637.56"
       width="107.14877"
       height="53.13797"
       id="rect619-2" />
    <rect
       x="4169.6816"
       y="13637.56"
       width="118.99005"
       height="53.845078"
       id="rect620-9" />
    <rect
       x="4169.6816"
       y="13637.56"
       width="107.14877"
       height="53.13797"
       id="rect621-3" />
  </defs>
  <g
     id="layer1"
     transform="translate(-22.48961,-27.781199)">
    <path
       fill="#0a0a0a"
       d="m 42.04597,31.569391 -5.675541,0.277137 3.077708,4.776799 z m 50.200188,40.830079 3.978775,-4.05708 -5.503028,-1.417304 z m -54.345617,15.760162 2.441037,5.131496 3.223623,-4.679521 z M 38.028321,33.57417 C 26.554203,42.122263 20.716472,57.898886 25.612402,72.071741 l 0.930269,-0.321404 C 21.79991,58.021179 27.452387,42.680628 38.616168,34.363452 Z M 93.83393,68.201683 C 96.444131,54.084254 89.826883,38.261132 76.175008,31.048876 L 75.715035,31.91916 C 88.95632,38.914449 95.404589,54.294153 92.866089,68.022846 Z M 41.289981,91.091145 c 12.061407,7.360868 27.485285,8.017627 40.340997,-2.266943 l -0.614723,-0.768729 c -12.490412,9.992273 -27.457479,9.370203 -39.213478,2.195426 z"
       id="path3"
       style="stroke-width:0.246059" />
    <path
       style="font-size:32px;line-height:1.25;font-family:'Caveat Brush';-inkscape-font-specification:'Caveat Brush';text-align:center;white-space:pre"
       d="m 4196.2799,13652.692 0.512,-1.088 q 0.16,-0.448 0.128,-0.704 0,-0.256 0,-0.416 0,-0.16 -0.032,-0.384 -0.032,-0.256 -0.224,-0.48 -0.16,-0.256 -0.352,-0.32 -0.16,-0.1 -0.64,-0.288 l -0.704,-0.03 q -0.96,-0.192 -1.632,0.16 0,0.704 -0.352,2.944 l -0.192,2.208 -0.16,1.152 q 0.224,0 1.152,-0.352 l 0.448,-0.384 q 0.128,-0.03 0.8,-0.704 0.16,-0.06 0.352,-0.32 l 0.32,-0.384 q 0.096,0.03 0.352,-0.32 z m -3.712,8.544 0.064,0.768 q 0.128,0.288 0,0.832 -0.128,0.544 -0.032,0.832 0,0.544 0.032,0.64 0.288,0 0.864,-0.256 0.608,-0.256 0.768,-0.288 0.16,-0.03 0.416,-0.256 0.8,-0.416 1.664,-0.96 l 0.736,-0.672 q 0.928,-1.12 1.28,-1.632 l 0.192,-0.576 q 0.416,-0.896 -0.8,-1.696 -0.256,-0.384 -1.056,-0.512 h -0.032 q -1.12,-0.32 -1.312,-0.256 l -1.408,0.32 q -0.384,0.192 -0.704,0.192 -0.288,0 -0.64,-0.288 l 0.032,0.896 q -0.224,0.608 -0.128,1.184 0.128,0.576 0.064,1.728 z m 1.408,5.696 h -0.288 q -0.32,0.06 -1.248,-0.1 -1.632,-0.256 -2.624,-1.024 -0.288,-0.256 -0.672,-0.672 -0.352,-0.448 -0.352,-0.608 0,-0.16 0,-0.416 0.032,-0.256 -0.032,-0.512 v -0.256 q -0.096,-0.192 0.032,-0.672 0.128,-0.512 0.064,-0.832 -0.064,-0.416 -0.096,-0.896 -0.096,-0.128 0.096,-0.704 0.256,-4.32 0.256,-4.736 l 0.16,-0.96 q -0.16,-0.96 0.064,-1.664 v -0.704 q -0.032,-0.448 0.256,-2.592 -0.128,-0.384 -0.864,-0.992 -0.16,-0.16 -0.32,-0.48 -0.16,-0.352 0.128,-1.088 0.192,-0.256 1.12,-0.832 0.064,-0.192 1.728,-0.736 l 0.608,-0.256 q 0.448,-0.16 1.792,-0.128 0.736,0.1 1.184,0.288 1.632,0.8 3.008,1.824 0.416,0.192 0.576,0.512 0.576,0.384 1.056,1.248 0.512,0.832 0.576,1.056 0.16,1.024 -0.32,2.464 -0.224,0.736 -2.112,3.072 0.32,0.1 1.088,0.544 0.096,0.128 0.672,0.448 0.064,0.1 0.16,0.224 0.128,0.128 0.192,0.224 l 0.256,0.16 0.32,0.48 0.48,0.416 q 0.32,0.32 0.512,0.704 0.48,0.448 0.512,0.736 l 0.064,0.608 q -0.032,0.352 -0.96,2.304 -0.352,0.704 -0.896,1.088 l -0.48,0.576 q -0.192,0.256 -0.736,0.64 -0.512,0.384 -0.864,0.736 -0.16,0.06 -0.512,0.288 -0.32,0.224 -0.992,0.544 -0.64,0.32 -0.864,0.384 -0.64,0.192 -1.728,0.288 z m 10.528,-3.712 q -0.128,-0.128 -0.256,-0.608 -0.096,-0.48 -0.096,-0.896 0.032,-0.416 -0.064,-1.088 0.032,-0.128 0.032,-0.704 0,-0.608 -0.064,-1.184 -0.064,-0.608 -0.064,-0.96 0.032,-0.384 0,-0.832 0.032,-0.224 0.128,-0.768 -0.032,-0.03 -0.032,-0.8 0,-0.8 0.128,-1.28 0,-0.896 0.16,-1.952 v -0.544 q 0.224,-1.376 0.288,-1.952 0.032,-0.704 0.192,-1.152 -0.128,-0.416 0.288,-1.792 0.128,-0.32 0.864,-0.608 l -0.032,0.03 q 0.192,-0.128 0.8,-0.1 0.608,0.03 0.8,0.128 0.224,0.1 0.768,0.256 0.736,0.192 0.384,3.552 0,0.32 -0.192,1.6 0,0.64 -0.096,1.312 v 0.608 l -0.064,0.8 q 0,0.288 -0.032,0.544 0,0.256 -0.032,0.8 0,0.512 -0.096,0.8 -0.064,0.288 -0.064,0.384 -0.096,0.1 -0.128,0.544 -0.032,0.544 -0.192,1.312 -0.16,0.288 0.128,3.36 0.064,0.96 0.448,1.28 0.384,0.288 1.056,-0.192 0.192,-0.192 0.224,-0.256 l 0.128,-0.48 q 0.128,0 0.352,-0.64 l 0.352,-0.64 0.096,-0.384 q 0,-0.256 0.256,-0.704 0.288,-0.48 0.352,-0.64 l 0.48,-1.6 0.192,-0.8 q 0,-0.192 0.256,-0.704 0,-0.16 0.16,-0.832 0,-0.608 -0.032,-0.864 0.032,0 0.032,-0.192 0.032,-0.192 0.16,-0.608 0.16,-0.448 0.16,-1.088 0,-0.1 0.288,-0.64 0,-0.832 0.608,-2.208 -0.032,0.03 0,-0.06 0.032,-0.128 0.032,-0.192 0.032,-0.1 0.064,-0.192 0.032,-0.1 0.032,-0.192 -0.096,-0.192 0.032,-0.48 0.128,-0.288 0.224,-0.608 0.096,-0.32 0.224,-0.64 l 0.768,-0.512 q 0.16,0 0.416,-0.03 0.288,-0.06 1.28,0 0.384,0.128 0.608,0.704 0.352,0.544 0.096,1.6 0,0.224 -0.256,1.568 0,0.224 -0.192,1.056 -0.192,0.832 -0.288,1.504 -0.064,0.64 -0.16,0.864 -0.064,0.448 -0.032,0.736 l -0.192,1.376 q 0,0.512 -0.096,1.536 -0.096,1.024 -0.224,1.6 -0.096,0.544 0.32,2.208 l 0.384,2.08 q 0,0.48 0.16,0.832 0.16,0.32 0.16,0.32 v 0.16 q 0.896,1.76 -0.608,2.048 -0.736,0.192 -0.896,0.256 -0.16,0.1 -0.704,-0.06 -0.512,-0.128 -0.96,-0.576 -0.128,-0.192 -0.352,-1.152 -0.096,-0.192 -0.224,-1.12 -0.096,-0.1 -0.224,-0.736 0.064,-0.128 -0.128,-0.416 -0.224,0.448 -0.32,0.576 -0.224,0.352 -0.288,0.512 -0.032,0.128 -0.224,0.64 l -0.576,1.024 q -0.672,1.248 -1.664,1.12 -0.032,-0.03 -0.64,-0.06 -0.128,-0.128 -0.896,-0.224 -0.128,-0.03 -0.32,-0.06 -0.192,0 -0.512,-0.03 -0.064,-0.1 -0.48,-0.352 -0.96,-0.352 -1.312,-0.96 -0.288,-0.06 -0.416,-0.448 -0.064,-0.192 -0.416,-0.896 z m 26.368,-15.808 q 0.096,0.416 -0.16,0.576 -0.224,0.16 -0.512,0.16 -0.288,0 -1.44,0.06 -0.704,0.128 -1.472,0.448 h -0.032 q 0,0.512 -0.32,1.792 0,0.384 -0.192,1.312 0,0.224 -0.096,0.512 -0.096,0.288 -0.096,0.864 -0.224,1.344 -0.16,1.632 -0.256,1.344 -0.256,2.048 0,0.672 -0.16,1.184 v 0.352 q 0.064,1.216 -0.096,1.728 -0.128,0.512 -0.128,0.864 0,0.352 -0.16,1.088 -0.16,0.736 -0.096,1.76 h 0.192 q 0.8,-0.06 0.864,-0.03 0.064,0 0.448,-0.1 l 0.512,0.03 h 0.32 q 0.096,0 0.416,0.256 0.704,0.576 0.608,0.896 -0.096,0.288 -0.736,0.768 l -0.608,0.192 q -0.096,0.128 -0.48,0.256 -0.352,0.128 -0.608,0.128 -0.736,0.16 -0.896,0.512 -0.096,0.288 -1.504,0.224 h -1.088 l -0.608,0.192 q -0.8,0.32 -1.408,0.16 -0.608,-0.16 -0.832,-0.256 -0.192,-0.06 -0.48,-0.32 -0.288,-0.224 -0.256,-0.576 0.064,-0.32 0.224,-0.896 0.576,-0.448 0.768,-0.544 0.192,-0.128 0.672,-0.256 0.48,-0.128 1.28,-0.48 0,-1.12 -0.064,-1.312 0.096,-0.03 0.224,-1.44 0.032,-0.128 -0.16,-0.64 v -0.192 q 0.096,-0.96 -0.032,-1.728 0,-0.03 0.128,-1.184 0.16,-0.192 0,-1.088 0.128,-0.672 0.224,-0.992 l 0.032,-0.48 q 0,-0.192 0.192,-1.216 l 0.064,-0.608 q 0.544,-2.368 0.768,-3.648 -0.256,0.06 -0.32,0.06 l -1.056,0.192 q -1.216,0.352 -2.144,-0.576 -0.8,-1.184 0,-1.984 0.448,-0.448 1.088,-0.512 0.64,-0.1 1.472,-0.512 0.256,0 1.504,-0.736 1.152,-0.192 1.376,-0.192 l 1.536,-0.192 q 0.288,-0.03 0.768,0.06 0.48,0.06 0.576,0.192 0.48,0.128 1.024,0.416 l 0.768,0.736 q 0.448,0.704 0.608,1.024 z m 1.4719,8.512 0.16,-0.864 v -0.224 q 0.064,-0.288 0.096,-0.32 0.064,-0.03 0,-0.128 -0.032,-0.128 0.064,-0.288 0.128,-0.192 0.192,-0.544 -0.064,-0.224 -0.032,-0.32 0.032,-0.1 0.096,-0.704 0.096,-0.608 0.192,-0.64 0.064,-0.512 0.16,-0.8 0.096,-0.32 0.096,-0.384 0,-0.1 0.16,-0.416 0.064,-0.352 0.096,-0.384 0.064,-0.06 0.032,-0.128 -0.064,-0.1 0.288,-1.248 0.352,-1.248 0.32,-1.248 v -0.16 q 0.064,-0.224 0,-0.352 -0.032,-0.128 0.16,-0.544 0.192,-0.448 0.352,-0.48 0.224,-0.224 0.256,-0.224 0.736,-0.1 1.152,0.128 l 0.416,0.32 q 0,0.16 0.192,0.16 0.16,0.03 0.544,0.32 0.416,0.288 0.544,0.448 0.064,0.128 0.064,0.512 0,0.352 -0.32,1.76 -0.48,1.984 -0.48,2.336 l -0.192,0.64 q 0,0.32 -0.224,1.376 -0.448,2.08 -0.64,3.872 -0.352,1.248 -0.576,4.768 h 0.064 l 0.352,-0.03 q 0.288,0 0.64,-0.1 0.384,0 0.448,-0.06 l 0.768,-0.448 q 0.128,-0.128 0.544,-0.16 0.448,-0.06 0.544,-0.1 0.192,-0.1 1.344,-0.288 0.32,0.16 0.544,0.192 0.224,0 0.512,0.384 l 0.256,0.32 0.608,0.576 q 0,0.1 0.288,0.512 0.448,0.48 -0.192,0.864 -0.064,0.03 -0.384,0.128 -1.376,0.384 -1.632,0.576 -1.024,0.384 -1.536,0.384 l -0.448,0.16 q -0.832,0.48 -1.632,0.64 -0.416,0.288 -1.12,0.512 l -0.96,0.416 -0.576,0.16 q -0.448,0.352 -0.608,0.06 0,-0.03 -0.032,-0.1 -0.032,-0.03 -0.064,-0.1 l -1.344,-1.248 q -0.192,-0.128 -0.192,-0.288 0,-0.416 -0.128,-0.64 -0.128,-0.256 0.128,-0.864 0.096,-0.352 0.064,-0.704 -0.192,-0.608 0.064,-1.248 0,-0.06 0.064,-0.448 -0.032,-0.192 0.032,-0.352 0.064,0 0,-0.224 -0.032,-0.256 -0.032,-0.48 0.16,-0.416 0.128,-1.248 0,-0.832 0.192,-1.12 0,-0.256 0.064,-0.704 0.064,-0.448 0,-0.544 -0.032,-0.1 0.064,-0.128 0.064,-0.32 0,-0.512 z m 17.856,-2.912 q 0,0.352 -0.16,2.24 v 0.704 q -0.384,4.832 -0.288,8.448 0.576,-0.16 0.992,-0.608 0.48,-0.416 1.184,-0.992 l 0.448,-0.48 q 0.16,-0.03 0.832,-0.768 v -0.03 q 0.064,-0.192 0.544,-0.8 l 0.352,-0.736 0.224,-0.64 q 0.256,-0.352 0.608,-1.696 l 0.192,-1.312 v -0.864 q 0,-0.256 0.064,-0.64 0,-0.608 -0.096,-0.928 -0.224,-2.944 -2.144,-3.904 -0.768,-0.448 -1.6,-0.192 -0.352,0 -1.088,0.448 0.032,0.448 0.032,1.504 z m -4.256,11.232 -0.192,-2.176 0.128,-1.696 q 0,-0.576 0.128,-1.44 -0.096,-0.128 -0.032,-1.44 0.128,-0.224 0.128,-0.48 -0.128,-2.336 -0.064,-2.56 0.096,-0.256 0,-0.832 0.064,-0.06 0.16,-0.672 0.128,-0.608 0.096,-0.832 -1.088,0.06 -1.632,-0.544 -0.544,-0.608 -0.96,-1.76 0.096,-0.768 0.288,-1.024 0.224,-0.288 0.288,-0.352 0.064,-0.1 0.288,-0.288 0.256,-0.192 0.32,-0.224 0.096,-0.06 0.448,-0.288 0.352,-0.256 0.448,-0.32 0.096,-0.16 0.512,-0.256 0.416,-0.128 1.184,-0.48 0.128,-0.128 1.088,-0.416 1.888,-0.384 3.104,0.1 0.672,-0.1 1.056,0.06 0.288,0.256 0.928,0.416 l 1.632,0.8 q 0.512,0.512 1.504,1.6 1.184,1.888 1.632,4.224 0.096,0.608 0.096,2.144 -0.096,2.112 -0.576,3.456 -0.064,0.384 -0.288,0.8 -0.064,0.416 -0.352,0.992 0,0.16 -0.672,1.28 -0.736,1.12 -1.312,1.888 -0.96,0.896 -1.12,1.088 -0.16,0.192 -0.288,0.32 l -0.576,0.416 -2.656,1.472 q -0.288,0.224 -0.896,0.352 -0.928,0.1 -1.152,-0.06 -0.448,-0.128 -0.96,-0.64 -0.16,-0.03 -0.544,-0.512 -0.032,-0.03 -0.256,-0.16 -0.224,-0.128 -0.32,-0.224 -0.384,-0.544 -0.608,-1.728 z"
       id="text619"
       transform="matrix(0.24605975,0,0,0.24605975,-980.32391,-3329.6971)"
       aria-label="BUILD" />
    <path
       style="font-size:32px;line-height:1.25;font-family:'Caveat Brush';-inkscape-font-specification:'Caveat Brush';text-align:center;white-space:pre"
       d="m 4184.6809,13651.412 q 0.032,0.544 0.256,2.528 0.352,3.52 0.416,4.288 l 0.32,1.504 0.256,1.504 q 0.704,-1.408 0.672,-1.632 0,-0.224 0.544,-1.664 0.768,-1.376 0.992,-2.432 0.032,-0.192 0.352,-0.928 -0.096,-0.1 0.16,-0.608 0.256,-0.544 0.384,-1.152 0.16,-0.608 0.16,-0.64 0.032,-0.03 0.064,-0.06 0.096,-0.1 0.256,-0.576 0.096,-0.448 0.096,-0.704 v -0.992 q 0,-0.1 0.16,-0.672 l -0.032,-0.736 q 0,-0.768 0.736,-1.984 l 0.64,-0.544 q 0,-0.288 0.48,-0.352 0.512,-0.06 0.896,0.06 0.384,0.128 0.512,0.128 0.128,0.128 0.928,0.32 0.384,0.128 0.48,0.48 0.128,0.352 0.128,0.96 l -0.224,2.496 q 0,0.224 -0.192,3.104 l 0.032,1.024 q -0.032,0.06 -0.032,1.088 v 1.664 q 0,0.48 0,0.608 l 0.096,1.216 q -0.128,0 0.384,2.848 0,0.448 0.32,1.952 0.352,1.472 0.192,2.464 0,0.512 -0.928,0.928 -0.704,-0.128 -0.864,-0.416 -0.288,-0.16 -0.352,-0.256 l -0.256,-0.32 q -0.512,-0.416 -0.832,-0.992 -0.224,-0.224 -0.32,-0.64 -0.32,-0.448 -0.384,-1.12 -0.064,-0.672 -0.256,-0.928 -0.16,-0.288 -0.256,-0.544 -0.352,-0.352 -0.448,-1.248 -0.096,-0.928 -0.192,-1.6 0,-0.384 0.032,-0.576 -0.096,-0.256 -0.128,-0.384 0,-0.128 -0.032,-0.288 l -0.128,0.608 q -0.096,0.16 -0.416,1.248 l -0.672,2.08 -0.576,2.016 q -0.16,0.1 -0.384,0.768 -0.288,0.736 -0.352,0.8 -0.032,0.06 -0.096,0.192 -0.256,0.512 -0.576,0.832 -0.864,0.8 -1.792,0.448 -0.896,-0.32 -1.312,-1.28 -0.224,-0.544 -0.352,-0.704 -0.032,-0.256 -0.352,-0.896 -0.224,-0.608 -0.352,-1.536 -0.16,-0.288 -0.224,-0.992 -0.16,-0.288 -0.224,-0.832 -0.064,-0.544 -0.192,-1.056 -0.16,-0.544 -0.224,-1.312 -0.064,-0.576 -0.48,-2.112 -0.096,-0.1 -0.256,-0.64 -0.064,0.512 -0.064,0.576 0,0.03 -0.256,1.568 0.064,0.06 -0.032,0.96 -0.192,0.608 -0.224,1.28 -0.256,1.728 -0.224,2.592 0.096,0.288 0,0.704 -0.064,0.384 -0.128,0.8 -0.032,0.384 -0.128,0.704 v 0.224 q -0.096,0.992 -0.032,1.12 0,0.352 -0.288,0.864 -0.256,0.512 -0.832,0.384 -1.024,-0.256 -1.184,-0.384 -0.352,-0.576 -0.352,-1.024 v -1.536 l 0.064,-0.576 q -0.032,-0.1 0.032,-0.736 -0.032,-0.03 -0.032,-0.512 0,-0.512 -0.096,-0.768 v -0.32 q -0.064,-1.088 -0.032,-1.248 0.064,-0.192 0,-0.8 0.128,0 0.16,-0.48 0.032,-0.512 0.096,-1.088 l 0.224,-0.1 q -0.064,-0.03 -0.032,-0.896 0.032,-0.224 0.16,-1.152 0.128,-0.928 0.096,-1.248 0,-0.352 0.352,-1.088 0.672,-2.016 0.704,-2.56 0.064,-0.544 0.192,-0.96 0.128,-1.056 0.608,-1.76 0.224,-0.704 0.832,-0.832 l 0.384,-0.288 h 0.032 q 0.608,-0.448 2.176,-0.128 1.344,0.608 1.472,1.504 -0.128,0.448 0.096,3.104 z m 17.2159,7.072 v 1.28 q 0,1.984 0.224,2.208 -0.032,0.03 0.16,0.768 0,0.256 0.256,0.8 0,0.16 0.896,0.768 0.384,0 1.888,-0.64 l 2.272,-0.864 q 0.416,-0.128 0.768,0.128 0.384,0.224 0.448,0.832 0.096,0.576 -0.032,0.832 -0.096,0.256 -0.544,0.64 -0.416,0.384 -0.544,0.544 -0.128,0.16 -0.48,0.32 -0.352,0.192 -0.8,0.384 -0.416,0.192 -0.576,0.288 -1.248,0.576 -1.92,0.448 -0.416,0 -0.864,-0.16 -0.416,-0.16 -0.48,-0.16 -0.032,0.03 -0.256,-0.03 -0.192,-0.03 -0.384,-0.1 -0.192,-0.03 -0.992,-0.192 0,-0.128 -0.448,-0.256 l -0.864,-0.704 q -0.224,-0.128 -0.48,-0.8 l -0.288,-0.48 q -0.128,-0.1 -0.352,-0.736 -0.128,-0.16 -0.16,-0.576 -0.16,-0.352 -0.16,-0.992 -0.128,-0.16 -0.288,-1.216 -0.224,-1.376 -0.032,-2.464 0,-0.608 0.224,-1.184 0.032,-0.256 0.064,-0.512 0.16,-0.832 0.224,-1.28 -0.128,-0.448 0.416,-2.144 0,-0.256 0.192,-0.736 0.224,-0.512 0.256,-1.056 l 0.256,-0.608 q 0,-0.256 0.48,-1.888 0.256,-0.608 0.256,-0.704 l 0.8,-1.696 0.384,-0.512 q 0.224,-0.224 0.672,-0.384 0.192,-0.16 1.024,0.03 0.512,0.192 0.704,0.384 0.224,0.1 0.544,0.1 l 2.464,-0.16 q 0.928,0.06 1.248,0.224 0.32,0.128 0.608,0.48 0.32,0.352 0.224,0.704 -0.064,0.352 -0.256,0.544 -0.416,0.352 -1.536,0.832 -1.952,1.056 -2.112,1.12 l -0.768,0.352 q -0.48,0.32 -0.608,0.672 -0.992,3.584 -1.088,4 -0.064,0.384 -0.096,0.48 0,0.06 0,0.1 l 0.64,-0.06 q 1.408,-0.448 1.664,-0.288 0.128,0 0.352,-0.1 1.184,-0.416 2.08,-0.352 0.16,-0.1 0.352,0.128 0.192,0.224 0.288,0.544 0.192,0.8 -0.48,1.248 -1.344,0.896 -3.2,1.44 -0.608,0.48 -1.696,0.608 z m 16.192,-5.504 -0.128,-0.544 q 0,-2.144 -0.48,-2.976 -0.064,-0.03 -0.096,-0.03 -0.16,0 -0.224,0.384 -0.384,0.768 -0.704,2.112 -0.128,0.128 -0.288,0.96 -0.48,2.144 -0.736,2.656 l -0.064,0.48 q -0.224,0.736 -0.032,0.96 0,-0.128 1.344,-0.416 1.344,-0.288 1.408,-0.32 0.064,-0.03 0.032,-0.32 0,-0.288 0.192,-0.896 0.064,-0.03 -0.096,-0.224 -0.128,-0.224 -0.096,-0.672 -0.064,-0.192 -0.064,-0.544 0.032,-0.352 0.032,-0.608 z m 3.328,0.224 0.064,0.48 q 0.192,0.06 0.128,0.256 -0.064,0.192 -0.032,0.544 0.096,1.28 0.32,1.952 0,0.384 0.128,0.992 0.16,0.576 0.128,0.608 -0.032,0.03 -0.032,0.256 v 0.32 q -0.192,-0.416 -0.032,0.64 0.128,0.256 0.192,0.8 0.096,0.544 0.384,1.92 0.608,2.4 0.608,2.656 0,0.224 -0.192,0.768 -0.192,0.512 -0.576,0.736 l -1.44,0.1 q -0.48,-0.128 -1.184,-0.736 -0.416,-0.416 -0.512,-0.928 l -0.384,-1.088 q -0.032,-0.192 -0.032,-0.576 -0.032,-0.03 -0.096,-0.416 0.064,-0.16 -0.16,-0.64 v -0.576 q 0.096,-0.16 -0.128,-0.608 l -0.16,-1.024 q 0.064,-0.128 -0.384,-0.544 -0.32,0.16 -0.832,0.256 h -1.024 q -0.608,0 -1.024,0.03 -0.224,0 -0.224,1.28 -0.032,0.1 -0.16,0.448 0,0.16 -0.128,0.512 -0.128,0.352 -0.128,0.608 0,0.224 -0.064,0.32 -0.16,0.32 -0.448,1.536 -0.288,1.184 -0.448,1.568 -0.128,0.384 -0.032,0.48 0.032,0.1 -0.096,0.32 -0.128,0.224 -0.288,0.32 -0.352,0 -0.768,-0.16 -0.416,-0.16 -0.992,-0.16 -0.416,-0.06 -0.736,-0.832 -0.064,-0.224 -0.096,-0.384 0.064,-0.1 0.096,-0.48 -0.224,-0.16 -0.224,-0.608 l 0.032,-0.448 q 0,-0.288 0.16,-0.544 -0.032,0 0.128,-0.544 -0.192,-0.128 0.224,-1.952 0,-0.448 0.288,-1.312 0.128,-0.576 0.128,-0.768 0.032,-0.288 0.064,-0.352 0.032,-0.1 0.064,-0.224 0.352,-0.96 0.384,-1.312 0.032,-0.384 0.512,-1.536 0.096,-0.192 0.096,-0.576 0,-0.384 0.096,-0.608 0.096,-0.224 0.16,-0.512 0.096,-0.288 0.256,-0.608 -0.096,-0.1 0.064,-0.64 0,-0.192 0.256,-0.8 0.256,-0.64 0.256,-0.8 0.032,-0.192 0.064,-0.256 0.064,-0.1 0.128,-0.288 0.064,-0.192 0.192,-0.416 0.128,-0.224 0.128,-0.384 0.032,-0.16 0.192,-0.544 0,-0.224 0.096,-0.576 0.096,-0.1 0.416,-0.608 0,-0.192 0.544,-0.608 0.576,-0.416 0.704,-0.576 l 1.664,-0.256 q 0.032,-0.256 0.384,-0.768 0.992,-0.48 2.016,-0.32 0.032,0 0.128,0.03 0.128,0.03 0.288,0.06 0.192,0.03 0.416,0.1 0.256,0.06 0.256,0.448 l -0.032,3.808 q 0.064,0.256 0.096,1.344 0.064,1.056 0.192,1.536 0,0.736 -0.032,0.864 z m 7.968,-7.424 0.384,-0.03 q 0.192,0 0.736,-0.128 0.544,-0.128 2.144,-0.288 1.28,0.224 2.08,0.48 1.536,0.864 1.952,1.792 0.256,0.256 0.256,0.32 0,0.06 0.064,0.16 0.704,1.952 0.512,2.784 -0.064,0.704 0.064,0.832 0.064,0.224 -0.16,0.448 -0.192,0.224 -0.672,0.32 -0.192,0.1 -0.512,0.128 -0.768,0.224 -0.992,0.06 -0.704,-0.06 -0.864,-0.736 l -0.224,-0.448 q -0.192,-0.352 -0.192,-0.864 l -0.128,-1.152 q -0.064,-0.06 -0.16,-0.256 -0.32,-0.672 -0.48,-0.864 -0.96,-0.736 -2.368,0.06 -0.544,0.96 -0.544,1.312 l -0.32,0.928 q -0.064,0.128 -0.032,0.416 -0.128,1.216 0.16,1.824 0,0.32 0.544,0.928 l 0.736,0.64 q 0.64,0.352 0.64,0.448 l 0.736,0.352 0.288,0.288 q 1.568,0.864 1.696,1.28 l 1.056,1.216 0.48,0.992 q 0.096,0.16 0.224,1.024 0.128,0.832 0.064,1.152 0.128,0.288 -0.032,0.992 0.16,0.576 -0.448,1.632 0,0.1 -0.448,0.736 -0.448,0.608 -0.832,0.992 -0.384,0.352 -1.216,0.896 -0.16,0.32 -1.472,0.448 -0.416,0.192 -0.864,-0.06 -0.32,0.06 -0.576,-0.03 -0.224,-0.1 -0.896,-0.288 l -0.768,-0.06 -0.576,-0.224 q -0.096,-0.16 -1.312,-0.992 -0.256,0 -0.48,-0.32 -0.192,-0.352 -0.416,-0.64 -0.448,-0.512 -0.448,-1.056 -0.192,-0.32 0,-0.8 0.544,-1.216 2.144,-0.64 0.704,0.416 0.96,0.672 l 1.28,1.056 q 1.248,0.704 2.08,0.06 l 0.448,-0.704 q 0.064,-0.224 0.064,-0.896 0,-0.672 -0.064,-0.928 -0.064,-0.288 -0.384,-0.896 -0.416,-0.576 -0.448,-0.64 l -0.512,-0.48 q -0.16,-0.03 -0.416,-0.128 -0.224,-0.1 -0.288,-0.128 -0.032,-0.03 -0.384,-0.16 -0.352,-0.16 -0.832,-0.8 -0.032,0 -0.416,-0.224 -0.128,-0.06 -0.928,-0.608 -0.512,-0.192 -0.672,-0.672 l -0.512,-0.48 q 0,-0.256 -0.128,-0.384 -0.128,-0.128 -0.16,-0.192 0,-0.1 -0.032,-0.16 -0.096,-0.448 -0.16,-0.64 -0.192,-0.16 -0.32,-0.544 -0.128,-0.384 -0.096,-0.672 -0.16,-0.256 -0.096,-1.312 v -0.576 q 0,-0.704 0.096,-1.024 0.256,-0.288 0.16,-0.96 0,-0.1 0.096,-0.224 l 0.704,-1.376 q 0.128,-0.128 0.32,-0.288 0.224,-0.192 0.448,-0.576 l 0.768,-0.64 q 0,-0.1 0.512,-0.352 0.256,-0.06 0.384,-0.128 z m 10.912,15.744 q -0.032,-0.224 -0.032,-0.704 0,-0.512 -0.128,-0.96 0.064,-0.32 -0.064,-1.76 -0.096,-1.472 -0.16,-1.92 l 0.096,-0.768 q -0.032,-0.03 -0.064,-0.8 0,-0.768 0.096,-1.28 v -0.832 l 0.096,-1.12 v -0.544 q 0.16,-1.664 0.192,-2.048 0,-0.608 0.16,-1.056 -0.096,-0.512 0.224,-1.824 0.128,-0.288 0.832,-0.64 v 0.03 q 0.128,-0.1 0.736,-0.1 0.64,0 0.8,0.1 0.192,0.06 0.832,0.224 0.736,0.128 0.512,3.52 0,0.256 -0.16,1.632 0.032,0.32 -0.032,1.312 v 0.608 q 0.064,0.224 0,0.512 -0.032,0.256 -0.032,0.288 v 1.376 q 0,0.608 -0.064,0.832 -0.064,0.256 -0.32,2.176 -0.16,0.256 0.256,3.36 0.096,0.96 0.48,1.248 0.48,0.352 1.216,-0.352 0.064,-0.1 0.16,-0.608 0.16,0 0.32,-0.64 l 0.352,-0.672 0.064,-0.384 q 0,-0.256 0.256,-0.704 0.256,-0.48 0.32,-0.672 l 0.416,-1.6 q 0,-0.06 0.128,-0.48 l 0.032,-0.32 q 0,-0.192 0.224,-0.736 0,-0.16 0.16,-0.832 -0.064,-0.192 -0.064,-0.512 0.032,-0.352 0.032,-0.544 0,-0.192 0.128,-0.576 0.128,-0.384 0.096,-0.8 0,-0.416 0.288,-0.96 0,-0.928 0.16,-1.376 0.192,-0.448 0.224,-0.576 0.064,-0.16 0.096,-0.224 0.032,-0.128 0.064,-0.256 0.032,-0.16 0.064,-0.256 0.032,-0.1 -0.032,-0.256 -0.032,-0.16 0.064,-0.416 0.128,-0.288 0.16,-0.512 0.064,-0.256 0.256,-0.768 l 0.8,-0.512 q 0.192,-0.06 0.512,-0.06 0.096,-0.06 1.12,-0.03 0.352,0.1 0.64,0.672 0.384,0.576 0.16,1.6 0,0.128 -0.224,1.568 0.064,0.416 -0.096,0.832 -0.224,1.28 -0.32,1.92 -0.064,0.608 -0.128,0.832 -0.032,0.224 0.032,0.608 l -0.16,1.376 q 0.032,0.224 -0.096,1.632 -0.16,2.208 0.288,3.712 0,0.03 0.032,0.16 0.032,0.1 0.064,0.288 0.032,0.16 0.192,0.768 0.192,0.576 0.192,0.96 0,0.384 0.16,0.704 0.192,0.32 0.192,0.32 v 0.16 q 0.928,1.76 -0.544,2.08 -0.672,0.16 -0.832,0.256 -0.128,0.128 -0.704,0 -0.544,-0.128 -1.024,-0.544 -0.032,-0.06 -0.128,-0.224 -0.096,-0.256 -0.256,-0.928 -0.096,-0.128 -0.288,-1.12 -0.096,-0.1 -0.16,-0.512 -0.064,-0.416 -0.224,-0.608 -0.192,0.448 -0.288,0.608 -0.256,0.352 -0.48,1.152 l -0.544,1.024 q -0.608,1.28 -1.632,1.184 -0.032,-0.03 -0.64,-0.03 -0.128,-0.128 -0.896,-0.192 -0.256,-0.06 -0.832,-0.06 -0.064,-0.1 -0.48,-0.352 -0.512,-0.192 -0.704,-0.32 -0.384,-0.16 -0.64,-0.608 -0.32,0 -0.576,-0.704 0,-0.06 -0.32,-0.608 l -0.256,-0.896 q -0.096,-0.1 -0.352,-0.928 z m 20.8319,-9.92 q 0,0.64 -0.448,3.52 l -0.096,0.448 q 0.128,-0.06 0.512,-0.448 0.608,-0.544 1.92,-1.312 l 0.48,-0.352 0.992,-0.416 1.088,-0.672 q -0.064,-0.06 0.16,-0.32 0.64,-1.088 0.768,-1.824 0,-0.448 -0.128,-0.64 -0.096,-0.224 -0.768,-0.288 -0.096,-0.1 -0.608,-0.192 -1.28,-0.1 -2.144,0.224 h -0.256 l -0.48,0.128 h -0.544 l -0.16,0.864 q 0,0.06 -0.16,0.64 0,0.256 -0.128,0.64 z m -4.608,6.752 q 0.096,-0.288 0.32,-2.048 l 0.608,-3.584 q 0.064,-0.128 0.16,-0.672 0,-0.352 0.064,-0.704 0.096,-0.384 0.096,-1.312 l -0.384,-0.256 -0.608,-0.288 q -0.384,-0.192 -0.8,-0.608 -0.16,-0.1 -0.096,-0.48 0.064,-0.416 0.48,-0.64 0.096,0 0.672,-0.224 0.192,0 0.64,-0.288 0.096,0 0.576,-0.288 l 1.408,-0.512 q 0.16,0 0.512,-0.16 0.384,-0.16 0.768,-0.192 l 1.248,-0.1 q 0.96,-0.16 1.664,0.1 0.48,0 0.896,0.192 0.288,0 0.864,0.224 0.416,0.06 0.864,0.352 0.224,0 0.416,0.128 0.384,0.288 0.8,0.48 l 0.768,0.672 q 0.64,0.512 1.184,1.408 0.608,0.64 -0.032,1.92 -0.032,0.192 -0.256,0.608 -0.96,1.952 -3.52,3.872 l -0.96,0.384 -1.6,0.928 q 0.288,0.448 1.184,1.696 l 2.56,3.296 0.352,0.608 0.832,0.992 q 0.096,0.224 0.544,0.544 l 0.512,0.544 q 0.704,0.608 0.544,1.344 -0.128,0.736 -0.896,0.736 l -0.768,-0.1 -1.536,-0.48 -0.512,-0.512 q -0.704,-0.352 -1.088,-0.736 -0.352,-0.416 -1.024,-1.056 -0.576,-0.384 -1.568,-1.568 0,-0.03 -0.192,-0.512 -0.384,-0.32 -0.672,-1.44 -0.032,-0.03 -0.096,-0.128 -0.064,-0.1 -0.224,-0.288 -0.128,-0.224 -0.192,-0.384 -0.192,-0.864 -0.672,-1.504 h -0.128 q 0,0.192 -0.128,0.544 v 0.64 l -0.256,1.856 -0.448,2.304 q 0,0.1 -0.096,0.416 -0.064,0.32 -0.064,0.384 0.032,0.03 0.032,0.352 0,0.288 -0.064,0.48 0,0.256 -0.192,0.832 -0.16,0.576 -0.512,0.736 -0.32,0.192 -1.216,0.03 -0.32,-0.128 -0.864,-0.928 -0.256,-0.1 -0.608,-1.056 0.064,-0.576 0.064,-0.704 0,-0.128 -0.032,-0.352 0.032,-0.576 0.064,-0.96 v -0.224 q 0,-0.06 0.032,-0.16 0.032,-0.128 0.064,-0.352 0.064,-0.256 0.128,-0.416 0.064,-0.256 0.064,-0.736 0,-0.48 0.224,-0.928 0,-0.416 0.096,-1.728 z m 19.008,0.128 v 1.28 q 0,1.984 0.224,2.208 -0.032,0.03 0.16,0.768 0,0.256 0.256,0.8 0,0.16 0.896,0.768 0.384,0 1.888,-0.64 l 2.272,-0.864 q 0.416,-0.128 0.768,0.128 0.384,0.224 0.448,0.832 0.096,0.576 -0.032,0.832 -0.096,0.256 -0.544,0.64 -0.416,0.384 -0.544,0.544 -0.128,0.16 -0.48,0.32 -0.352,0.192 -0.8,0.384 -0.416,0.192 -0.576,0.288 -1.248,0.576 -1.92,0.448 -0.416,0 -0.864,-0.16 -0.416,-0.16 -0.48,-0.16 -0.032,0.03 -0.256,-0.03 -0.192,-0.03 -0.384,-0.1 -0.192,-0.03 -0.992,-0.192 0,-0.128 -0.448,-0.256 l -0.864,-0.704 q -0.224,-0.128 -0.48,-0.8 l -0.288,-0.48 q -0.128,-0.1 -0.352,-0.736 -0.128,-0.16 -0.16,-0.576 -0.16,-0.352 -0.16,-0.992 -0.128,-0.16 -0.288,-1.216 -0.224,-1.376 -0.032,-2.464 0,-0.608 0.224,-1.184 0.032,-0.256 0.064,-0.512 0.16,-0.832 0.224,-1.28 -0.128,-0.448 0.416,-2.144 0,-0.256 0.192,-0.736 0.224,-0.512 0.256,-1.056 l 0.256,-0.608 q 0,-0.256 0.48,-1.888 0.256,-0.608 0.256,-0.704 l 0.8,-1.696 0.384,-0.512 q 0.224,-0.224 0.672,-0.384 0.192,-0.16 1.024,0.03 0.512,0.192 0.704,0.384 0.224,0.1 0.544,0.1 l 2.464,-0.16 q 0.928,0.06 1.248,0.224 0.32,0.128 0.608,0.48 0.32,0.352 0.224,0.704 -0.064,0.352 -0.256,0.544 -0.416,0.352 -1.536,0.832 -1.952,1.056 -2.112,1.12 l -0.768,0.352 q -0.48,0.32 -0.608,0.672 -0.992,3.584 -1.088,4 -0.064,0.384 -0.096,0.48 0,0.06 0,0.1 l 0.64,-0.06 q 1.408,-0.448 1.664,-0.288 0.128,0 0.352,-0.1 1.184,-0.416 2.08,-0.352 0.16,-0.1 0.352,0.128 0.192,0.224 0.288,0.544 0.192,0.8 -0.48,1.248 -1.344,0.896 -3.2,1.44 -0.608,0.48 -1.696,0.608 z"
       id="text620"
       transform="matrix(0.24605975,0,0,0.24605975,-951.90075,-3279.3309)"
       aria-label="MEASURE" />
    <path
       style="font-size:32px;line-height:1.25;font-family:'Caveat Brush';-inkscape-font-specification:'Caveat Brush';text-align:center;white-space:pre"
       d="m 4192.3279,13659.348 q -0.032,0.128 -0.032,0.512 0,0.384 -0.064,0.672 -0.064,0.288 0,0.704 0.128,0.576 0.544,1.408 0,0.1 0.48,0.512 0.128,0.03 0.256,0.06 0.16,0.03 0.256,0.1 0.096,0.03 0.448,-0.03 0.352,-0.1 0.448,-0.16 0.128,-0.1 0.48,-0.384 0.352,-0.448 0.768,-0.608 0.608,-0.576 1.152,-0.992 0.512,-0.1 0.672,-0.06 0.16,0.03 0.352,0.256 0.448,0.512 0.256,1.312 -0.256,0.896 -0.96,1.696 -0.128,0.224 -0.48,0.416 -0.064,0.06 -0.192,0.288 l -0.608,0.608 q -0.192,0 -0.256,0.192 -0.064,0.192 -0.832,0.48 -0.96,0 -1.696,-0.192 -1.6,-0.352 -2.272,-0.864 l -0.608,-0.384 q -0.064,-0.128 -0.608,-0.352 l -0.416,-0.512 -0.48,-0.512 -0.32,-0.576 q -0.096,-0.128 -0.128,-0.48 -0.032,-0.384 -0.096,-0.64 0.032,-0.1 0.032,-0.704 0.064,-0.288 0.064,-0.704 0.064,-0.1 0,-0.672 l 0.032,-0.288 v -0.448 q 0,-0.512 0.128,-1.088 0.128,-0.576 0.256,-1.216 0,-0.416 0.096,-0.736 -0.096,-0.288 0.032,-1.408 v -0.192 q 0,-0.32 0.032,-0.512 v -0.224 l 0.064,-1.952 q 0,-0.1 0.16,-0.832 0,-0.384 0.288,-1.248 0.192,-0.32 0.192,-0.544 0,-0.16 0.096,-0.64 0.16,-0.192 0.224,-0.864 0.032,0 0.16,-0.704 0,-0.384 0.352,-0.864 0.064,-0.192 0.576,-0.448 h 0.032 q 0.128,-0.06 0.96,-0.16 0.384,0 0.992,0.256 0.16,0 0.896,0.48 0.384,0.448 -0.224,2.048 0,0.288 -0.256,0.864 0,0.288 -0.096,0.672 0,0.288 -0.416,2.304 -0.384,1.984 -0.736,7.36 z m 11.52,-0.864 v 1.28 q 0,1.984 0.224,2.208 -0.032,0.03 0.16,0.768 0,0.256 0.256,0.8 0,0.16 0.896,0.768 0.384,0 1.888,-0.64 l 2.272,-0.864 q 0.416,-0.128 0.768,0.128 0.384,0.224 0.448,0.832 0.096,0.576 -0.032,0.832 -0.096,0.256 -0.544,0.64 -0.416,0.384 -0.544,0.544 -0.128,0.16 -0.48,0.32 -0.352,0.192 -0.8,0.384 -0.416,0.192 -0.576,0.288 -1.248,0.576 -1.92,0.448 -0.416,0 -0.864,-0.16 -0.416,-0.16 -0.48,-0.16 -0.032,0.03 -0.256,-0.03 -0.192,-0.03 -0.384,-0.1 -0.192,-0.03 -0.992,-0.192 0,-0.128 -0.448,-0.256 l -0.864,-0.704 q -0.224,-0.128 -0.48,-0.8 l -0.288,-0.48 q -0.128,-0.1 -0.352,-0.736 -0.128,-0.16 -0.16,-0.576 -0.16,-0.352 -0.16,-0.992 -0.128,-0.16 -0.288,-1.216 -0.224,-1.376 -0.032,-2.464 0,-0.608 0.224,-1.184 0.032,-0.256 0.064,-0.512 0.16,-0.832 0.224,-1.28 -0.128,-0.448 0.416,-2.144 0,-0.256 0.192,-0.736 0.224,-0.512 0.256,-1.056 l 0.256,-0.608 q 0,-0.256 0.48,-1.888 0.256,-0.608 0.256,-0.704 l 0.8,-1.696 0.384,-0.512 q 0.224,-0.224 0.672,-0.384 0.192,-0.16 1.024,0.03 0.512,0.192 0.704,0.384 0.224,0.1 0.544,0.1 l 2.464,-0.16 q 0.928,0.06 1.248,0.224 0.32,0.128 0.608,0.48 0.32,0.352 0.224,0.704 -0.064,0.352 -0.256,0.544 -0.416,0.352 -1.536,0.832 -1.952,1.056 -2.112,1.12 l -0.768,0.352 q -0.48,0.32 -0.608,0.672 -0.992,3.584 -1.088,4 -0.064,0.384 -0.096,0.48 0,0.06 0,0.1 l 0.64,-0.06 q 1.408,-0.448 1.664,-0.288 0.128,0 0.352,-0.1 1.184,-0.416 2.08,-0.352 0.16,-0.1 0.352,0.128 0.192,0.224 0.288,0.544 0.192,0.8 -0.48,1.248 -1.344,0.896 -3.2,1.44 -0.608,0.48 -1.696,0.608 z m 16.192,-5.504 -0.128,-0.544 q 0,-2.144 -0.48,-2.976 -0.064,-0.03 -0.096,-0.03 -0.16,0 -0.224,0.384 -0.384,0.768 -0.704,2.112 -0.128,0.128 -0.288,0.96 -0.48,2.144 -0.736,2.656 l -0.064,0.48 q -0.224,0.736 -0.032,0.96 0,-0.128 1.344,-0.416 1.344,-0.288 1.408,-0.32 0.064,-0.03 0.032,-0.32 0,-0.288 0.192,-0.896 0.064,-0.03 -0.096,-0.224 -0.128,-0.224 -0.096,-0.672 -0.064,-0.192 -0.064,-0.544 0.032,-0.352 0.032,-0.608 z m 3.328,0.224 0.064,0.48 q 0.192,0.06 0.128,0.256 -0.064,0.192 -0.032,0.544 0.096,1.28 0.32,1.952 0,0.384 0.128,0.992 0.16,0.576 0.128,0.608 -0.032,0.03 -0.032,0.256 v 0.32 q -0.192,-0.416 -0.032,0.64 0.128,0.256 0.192,0.8 0.096,0.544 0.384,1.92 0.608,2.4 0.608,2.656 0,0.224 -0.192,0.768 -0.192,0.512 -0.576,0.736 l -1.44,0.1 q -0.48,-0.128 -1.184,-0.736 -0.416,-0.416 -0.512,-0.928 l -0.384,-1.088 q -0.032,-0.192 -0.032,-0.576 -0.032,-0.03 -0.096,-0.416 0.064,-0.16 -0.16,-0.64 v -0.576 q 0.096,-0.16 -0.128,-0.608 l -0.16,-1.024 q 0.064,-0.128 -0.384,-0.544 -0.32,0.16 -0.832,0.256 h -1.024 q -0.608,0 -1.024,0.03 -0.224,0 -0.224,1.28 -0.032,0.1 -0.16,0.448 0,0.16 -0.128,0.512 -0.128,0.352 -0.128,0.608 0,0.224 -0.064,0.32 -0.16,0.32 -0.448,1.536 -0.288,1.184 -0.448,1.568 -0.128,0.384 -0.032,0.48 0.032,0.1 -0.096,0.32 -0.128,0.224 -0.288,0.32 -0.352,0 -0.768,-0.16 -0.416,-0.16 -0.992,-0.16 -0.416,-0.06 -0.736,-0.832 -0.064,-0.224 -0.096,-0.384 0.064,-0.1 0.096,-0.48 -0.224,-0.16 -0.224,-0.608 l 0.032,-0.448 q 0,-0.288 0.16,-0.544 -0.032,0 0.128,-0.544 -0.192,-0.128 0.224,-1.952 0,-0.448 0.288,-1.312 0.128,-0.576 0.128,-0.768 0.032,-0.288 0.064,-0.352 0.032,-0.1 0.064,-0.224 0.352,-0.96 0.384,-1.312 0.032,-0.384 0.512,-1.536 0.096,-0.192 0.096,-0.576 0,-0.384 0.096,-0.608 0.096,-0.224 0.16,-0.512 0.096,-0.288 0.256,-0.608 -0.096,-0.1 0.064,-0.64 0,-0.192 0.256,-0.8 0.256,-0.64 0.256,-0.8 0.032,-0.192 0.064,-0.256 0.064,-0.1 0.128,-0.288 0.064,-0.192 0.192,-0.416 0.128,-0.224 0.128,-0.384 0.032,-0.16 0.192,-0.544 0,-0.224 0.096,-0.576 0.096,-0.1 0.416,-0.608 0,-0.192 0.544,-0.608 0.576,-0.416 0.704,-0.576 l 1.664,-0.256 q 0.032,-0.256 0.384,-0.768 0.992,-0.48 2.016,-0.32 0.032,0 0.128,0.03 0.128,0.03 0.288,0.06 0.192,0.03 0.416,0.1 0.256,0.06 0.256,0.448 l -0.032,3.808 q 0.064,0.256 0.096,1.344 0.064,1.056 0.192,1.536 0,0.736 -0.032,0.864 z m 10.144,-1.12 q -0.224,1.088 -0.224,1.888 -0.064,0.448 -0.16,0.608 -0.064,0.16 -0.064,0.736 0,0.576 0.352,0.672 0.352,0 1.024,-0.384 l 0.672,-0.608 q 0.352,-0.288 1.632,-1.056 l 0.8,-0.768 0.32,-0.416 0.128,-0.288 q 0.256,-0.416 0.16,-0.864 l -0.064,-0.544 q -0.224,-0.992 -0.32,-1.152 -0.064,-0.192 -0.224,-0.384 -0.16,-0.224 -0.352,-0.384 -0.192,-0.16 -0.224,-0.224 l -0.992,-0.48 q -0.032,-0.03 -0.384,-0.1 -0.544,-0.224 -1.536,-0.06 l -0.192,1.024 q 0,0.192 -0.192,0.672 -0.16,0.48 -0.064,0.704 -0.032,0.1 -0.032,0.384 0,0.256 -0.064,0.704 z m -0.608,6.208 q -0.256,0.128 -0.32,0.128 -0.032,0.1 -0.032,0.352 v 0.384 q 0,0.224 -0.288,1.376 v 0.32 q 0,0.48 -0.16,0.768 l -0.128,1.408 -0.192,0.8 q -0.064,0.192 -0.032,0.352 0.064,0.16 0.096,1.184 0.064,0.992 -0.064,1.44 l -0.192,0.288 q -0.64,0.192 -0.832,0.1 -0.192,-0.1 -0.64,-0.128 -0.448,-0.03 -0.512,-0.06 -0.032,0 -0.32,-0.128 -0.256,-0.1 -0.352,-0.16 -0.064,-0.06 -0.224,-0.192 -0.416,-0.288 -0.416,-1.248 -0.064,-0.192 0.032,-0.448 -0.192,-0.1 -0.128,-0.512 0.096,-0.192 0.096,-0.608 0,-0.416 0.096,-0.672 v -0.512 q 0,-0.288 0.224,-1.184 0,-0.256 0.096,-0.448 -0.064,-0.06 0.16,-0.544 -0.064,-0.1 0.16,-0.928 -0.096,-0.1 -0.032,-0.576 0.064,-0.512 0.16,-0.8 0,-0.608 0.096,-0.736 -0.032,-0.1 -0.096,-0.608 l 0.064,-0.384 q 0,-0.384 0.288,-1.184 0.256,-1.824 0.256,-1.984 0.448,-1.856 0.448,-2.304 0.096,-0.03 0.192,-0.608 0.096,-0.608 -0.064,-0.864 -1.44,0.544 -2.4,1.28 -0.64,0.544 -0.864,0.416 -0.448,-0.256 -0.448,-0.736 l -0.128,-0.512 q -0.032,-0.03 -0.16,-0.352 -0.16,-0.352 -0.128,-0.512 0,-0.16 -0.032,-0.416 -0.064,-0.288 0,-0.384 0.288,-0.544 0.768,-0.8 l 0.768,-0.544 0.544,-0.32 q 0.064,0 1.216,-0.672 0.064,-0.128 0.48,-0.224 0.416,-0.1 1.856,-0.576 0.96,-0.1 1.12,-0.1 1.024,-0.128 1.728,0.192 0.48,0.128 0.544,0.128 0.096,-0.03 0.224,0 0.16,0.03 0.224,0.03 0,0.06 0.288,0.06 l 0.608,0.224 q 0.16,0 0.416,0.16 0.192,-0.03 0.512,0.16 0.352,0.16 0.992,0.48 0.672,0.32 0.672,0.544 0.192,0.06 0.416,0.352 l 0.384,0.384 0.608,0.8 q 0.064,0.03 0.288,0.32 0.32,0.544 0.352,0.64 0.032,0.1 0.064,0.192 0.032,0.06 0.256,0.544 0.448,0.896 0.352,1.568 0,0.03 -0.32,0.992 -0.576,1.696 -1.76,2.688 -0.256,0.192 -0.672,0.512 -0.416,0.288 -0.672,0.512 -1.216,0.736 -1.44,0.928 -0.192,0.192 -0.352,0.32 l -0.352,0.16 0.064,0.192 q 0,-0.128 0.16,0.128 0.192,0.224 0.256,0.352 0,0.16 0.32,0.384 0.064,-0.03 0.16,0.06 0.192,0.192 0.192,0.608 0.224,0.128 0.672,0.768 0.448,0.32 0.768,0.896 0.224,0.256 0.352,0.352 0.128,0.192 0.512,0.512 0.384,0.32 0.512,0.448 0.128,0.1 0.288,0.224 0.576,0.448 0.8,0.672 l 0.384,0.256 q 1.184,1.152 1.248,1.248 -0.032,0.224 -0.448,0.672 -0.032,0.512 -1.472,0.864 -0.48,0 -1.312,-0.448 -0.832,-0.416 -1.28,-0.896 -1.408,-1.024 -1.856,-1.6 -1.312,-1.312 -1.888,-2.528 -0.128,-0.1 -0.32,-0.32 -0.16,-0.224 -0.32,-0.352 l -0.416,-0.8 q -0.576,-0.8 -0.576,-0.8 z m 20.7999,1.664 q -0.096,-0.352 0.16,-1.568 0,-0.768 0.064,-1.216 v -0.64 q 0.128,-2.432 0.128,-3.008 0,-1.824 0.32,-2.72 l 0.032,-0.64 q 0,-0.448 0.032,-0.896 0.064,-0.48 0,-0.576 l 0.416,-1.408 0.064,-0.416 q 0.064,-0.1 0.512,-0.544 0.096,-0.1 0.736,-0.06 0.64,0 1.024,0.1 0.256,0 0.352,0.16 0.096,0.128 0.16,0.608 0.16,0.352 0.064,1.056 0.032,0.16 0.032,0.32 0,0.128 -0.032,0.288 0.064,0.544 -0.064,1.312 v 0.8 q 0,0.48 -0.128,1.12 l -0.032,0.8 q 0,0.448 -0.128,0.768 0,0.352 -0.192,1.312 0,0.512 -0.064,0.64 -0.032,0.1 0.064,0.8 -0.096,0.96 -0.032,1.504 v 0.64 q 0,1.504 -0.128,2.016 v 0.192 q 0,0.608 -0.096,0.928 0.064,0.736 -0.064,1.568 l -0.064,0.768 q -0.448,2.272 -2.144,2.528 -2.048,0.288 -3.264,-1.248 -0.096,-0.224 -0.16,-0.48 -0.16,-0.03 -0.256,-0.16 -0.416,-0.64 -1.216,-2.912 -0.224,-0.448 -0.224,-0.64 -0.256,-0.512 -0.256,-0.8 -0.256,-0.512 -0.256,-0.768 v -0.512 l -0.288,-0.736 q 0,-0.224 -0.096,-0.672 -0.32,-1.504 -0.416,-2.784 -0.096,-1.28 -0.128,-1.504 l -0.16,0.704 q -0.128,1.248 -0.288,1.984 -0.256,1.344 -0.256,2.368 -0.064,0.576 -0.064,0.992 -0.064,0.192 -0.064,0.48 l -0.096,2.176 q -0.192,1.216 -0.096,2.848 -0.032,0.928 -0.384,1.216 -0.352,0.32 -0.96,0.32 -0.512,-0.16 -1.216,-0.512 -0.192,-0.1 -0.288,-0.48 -0.064,-0.416 -0.16,-0.608 -0.448,-0.448 -0.512,-1.024 l -0.256,-2.24 q 0,-0.288 0.064,-1.056 0.096,-0.8 0.064,-1.28 -0.032,-0.48 0.224,-1.44 0.224,-0.544 0.224,-1.12 l 0.224,-2.592 q 0,-0.544 0.128,-0.832 0,-0.352 0.096,-0.8 -0.064,-0.128 0.096,-0.48 l 0.128,-0.48 q 0,-0.224 0.128,-0.736 0.16,-0.512 0.224,-1.184 0.16,-1.152 1.248,-2.24 0.256,-0.16 0.544,-0.8 0.256,-0.32 0.832,-0.576 0.608,-0.448 1.28,0.1 1.248,0.48 1.472,1.76 l 0.096,0.8 q 0,0.16 0.256,0.864 0,0.256 0.096,0.928 0,0.384 0.192,0.928 l 0.416,2.304 q 0.096,0.16 0.224,0.608 l 0.224,0.864 q 0.064,0.704 0.192,1.152 0.16,0.448 0.288,0.96 0.16,0.512 0.384,1.312 0.224,0.8 0.384,1.504 0.192,0.672 0.48,1.216 0.064,-0.128 0.064,-0.8 z"
       id="text621"
       transform="matrix(0.24605975,0,0,0.24605975,-1008.1051,-3279.3309)"
       aria-label="LEARN" />
  </g>
</svg>
