<?xml version="1.0" encoding="UTF-8" standalone="no"?>
<svg
   xmlns:dc="http://purl.org/dc/elements/1.1/"
   xmlns:cc="http://creativecommons.org/ns#"
   xmlns:rdf="http://www.w3.org/1999/02/22-rdf-syntax-ns#"
   xmlns:svg="http://www.w3.org/2000/svg"
   xmlns="http://www.w3.org/2000/svg"
   xmlns:xlink="http://www.w3.org/1999/xlink"
   id="svg9808"
   version="1.1"
   viewBox="0 0 79.374998 26.458334"
   height="100"
   width="300">
  <defs
     id="defs9802">
    <linearGradient
       id="linearGradient7063">
      <stop
         style="stop-color:black;stop-opacity:1;"
         offset="0"
         id="stop7059" />
      <stop
         style="stop-color:#353535;stop-opacity:1"
         offset="1"
         id="stop7061" />
    </linearGradient>
    <linearGradient
       id="linearGradient5539">
      <stop
         style="stop-color:black;stop-opacity:1;"
         offset="0"
         id="stop5547" />
      <stop
         id="stop5543"
         offset="1"
         style="stop-color:white;stop-opacity:1;" />
    </linearGradient>
    <linearGradient
       y2="162.07401"
       x2="142.97391"
       y1="46.435101"
       x1="27.334999"
       gradientUnits="userSpaceOnUse"
       id="linearGradient8797"
       xlink:href="#SVGID_1_" />
    <linearGradient
       y2="162.07401"
       x2="142.97391"
       y1="46.435101"
       x1="27.334999"
       gradientUnits="userSpaceOnUse"
       id="SVGID_1_">
      <stop
         id="stop10"
         style="stop-color:#9FBC4C"
         offset="0" />
      <stop
         id="stop12"
         style="stop-color:#92B148"
         offset="0.2043" />
      <stop
         id="stop14"
         style="stop-color:#789A41"
         offset="0.5361" />
      <stop
         id="stop16"
         style="stop-color:#4F7A38"
         offset="0.9518" />
      <stop
         id="stop18"
         style="stop-color:#4A7637"
         offset="1" />
    </linearGradient>
  </defs>
  <metadata
     id="metadata9805">
    <rdf:RDF>
      <cc:Work
         rdf:about="">
        <dc:format>image/svg+xml</dc:format>
        <dc:type
           rdf:resource="http://purl.org/dc/dcmitype/StillImage" />
        <dc:title></dc:title>
      </cc:Work>
    </rdf:RDF>
  </metadata>
  <g
     transform="translate(0,-270.54165)"
     id="layer1">
    <g
       id="g8761"
       transform="matrix(0.16713643,0,0,0.16713643,-466.90312,-1266.8142)"
       style="stroke-width:1.58303809">
      <path
         id="path8725"
         d="m 2959.875,9289.5728 c 0,4.1093 3.3355,7.4448 7.4477,7.4448 4.1122,0 7.4453,-3.336 7.4453,-7.4448 0,-4.1132 -3.3336,-7.4458 -7.4453,-7.4458 -4.1117,0 -7.4477,3.3326 -7.4477,7.4458 z"
         style="fill:#ffffff;stroke-width:1.58303809" />
      <g
         transform="matrix(0.48481334,0,0,0.48481334,2887.2,9233.7989)"
         id="g8743"
         style="stroke-width:3.26525259">
        <g
           id="g8741"
           style="stroke-width:3.26525259">
          <linearGradient
             y2="162.07401"
             x2="142.97391"
             y1="46.435101"
             x1="27.334999"
             gradientUnits="userSpaceOnUse"
             id="linearGradient8737">
            <stop
               id="stop8727"
               style="stop-color:#9FBC4C"
               offset="0" />
            <stop
               id="stop8729"
               style="stop-color:#92B148"
               offset="0.2043" />
            <stop
               id="stop8731"
               style="stop-color:#789A41"
               offset="0.5361" />
            <stop
               id="stop8733"
               style="stop-color:#4F7A38"
               offset="0.9518" />
            <stop
               id="stop8735"
               style="stop-color:#4A7637"
               offset="1" />
          </linearGradient>
          <path
             id="path8739"
             d="M 107.641,0 C 62.481,0 25.87,36.607 25.87,81.77 c 0,17.332 5.41,33.394 14.611,46.622 L 0,179.712 72.171,155.464 c 10.729,5.174 22.761,8.074 35.47,8.074 45.162,0 81.768,-36.615 81.768,-81.768 C 189.409,36.607 152.803,0 107.641,0 Z"
             style="fill:url(#linearGradient8797);stroke-width:3.26525259" />
        </g>
      </g>
      <g
         style="fill:#ffffff;stroke-width:1.58303809"
         id="g8757">
        <path
           style="fill:#ffffff;stroke-width:1.58303809"
           d="m 2984.8017,9245.9493 h 10.8666 v 54.7567 h -10.8666 z"
           id="path8745" />
        <path
           style="fill:#ffffff;stroke-width:1.58303809"
           d="m 3009.0704,9248.1242 c 3.4766,0 6.2978,2.8245 6.2978,6.2987 0,3.4785 -2.8212,6.3035 -6.2978,6.3035 -3.4761,0 -6.3011,-2.825 -6.3011,-6.3035 0,-3.4742 2.8255,-6.2987 6.3011,-6.2987 z m -5.4357,17.382 h 10.8637 v 35.1998 h -10.8637 z"
           id="path8747" />
        <path
           style="fill:#ffffff;stroke-width:1.58303809"
           d="m 3022.3233,9265.5062 h 10.4317 v 4.7754 h 0.1455 c 1.4462,-2.746 4.9989,-5.6423 10.2804,-5.6423 11.0155,0 13.0381,7.2388 13.0381,16.6568 v 19.4099 h -10.8593 v -17.2409 c 0,-4.053 -0.071,-9.2648 -5.6529,-9.2648 -5.6476,0 -6.5169,4.4118 -6.5169,8.9793 v 17.5269 h -10.8661 v -35.2003 z"
           id="path8749" />
        <path
           style="fill:#ffffff;stroke-width:1.58303809"
           d="m 3061.9796,9245.9493 h 10.8666 v 33.4628 l 12.0272,-13.9059 h 13.3271 l -13.985,15.8631 14.3442,19.3372 h -13.6863 l -11.8798,-17.8173 h -0.1474 v 17.8173 h -10.8666 z"
           id="path8751" />
        <path
           style="fill:#ffffff;stroke-width:1.58303809"
           d="m 3131.6885,9294.6265 c -3.4762,4.4123 -9.1989,6.9532 -14.8455,6.9532 -10.8652,0 -19.5598,-7.2499 -19.5598,-18.4719 0,-11.2297 8.6946,-18.4685 19.5598,-18.4685 10.1394,0 16.5127,7.2388 16.5127,18.4685 v 3.4005 h -25.2069 c 0.8693,4.1325 3.9886,6.8121 8.1866,6.8121 3.5488,0 5.9365,-1.8108 7.7468,-4.2712 z m -9.1984,-15.5014 c 0.067,-3.6192 -2.7533,-6.6633 -6.6662,-6.6633 -4.7832,0 -7.3905,3.257 -7.6751,6.6633 z"
           id="path8753" />
        <path
           style="fill:#ffffff;stroke-width:1.58303809"
           d="m 3174.8,9300.7065 h -9.9949 v -4.6338 h -0.1479 c -1.6648,2.5375 -5.8677,5.5065 -10.789,5.5065 -10.4342,0 -17.3112,-7.5345 -17.3112,-18.1815 0,-9.7811 6.0819,-18.7584 16.0773,-18.7584 4.4928,0 8.6947,1.2305 11.1498,4.6319 h 0.1507 v -23.3219 H 3174.8 Z m -18.69,-26.5062 c -5.4285,0 -8.6874,3.6172 -8.6874,8.9075 0,5.2888 3.2589,8.9094 8.6874,8.9094 5.4386,0 8.6956,-3.6206 8.6956,-8.9094 -5e-4,-5.2903 -3.2575,-8.9075 -8.6956,-8.9075 z"
           id="path8755" />
      </g>
      <path
         id="path8759"
         d="m 2953.5632,9260.7065 c -3.7331,0 -7.0507,-2.7935 -11.8256,-2.7935 -8.5118,0 -12.5537,7.2868 -12.5537,14.6729 0,7.0846 4.4602,14.4693 12.5537,14.4693 3.736,0 9.3375,-2.9884 11.0998,-2.9884 3.5353,0 6.434,2.8899 6.434,6.2836 0,7.3871 -12.865,9.8839 -18.2629,9.8839 -16.0779,0 -26.769,-12.6749 -26.769,-27.6484 0,-14.574 11.0009,-27.852 26.769,-27.852 5.9137,0 18.2629,2.0997 18.2629,9.0839 5e-4,2.9962 -2.1739,6.8887 -5.7082,6.8887 z"
         style="fill:#ffffff;stroke-width:1.58303809" />
    </g>
  </g>
</svg>
