<?xml version="1.0" encoding="UTF-8" standalone="no"?>
<svg
   xmlns:dc="http://purl.org/dc/elements/1.1/"
   xmlns:cc="http://creativecommons.org/ns#"
   xmlns:rdf="http://www.w3.org/1999/02/22-rdf-syntax-ns#"
   xmlns:svg="http://www.w3.org/2000/svg"
   xmlns="http://www.w3.org/2000/svg"
   id="svg9808"
   version="1.1"
   viewBox="0 0 79.374998 26.458334"
   height="100"
   width="300">
  <defs
     id="defs9802">
    <linearGradient
       id="linearGradient7063">
      <stop
         style="stop-color:black;stop-opacity:1;"
         offset="0"
         id="stop7059" />
      <stop
         style="stop-color:#353535;stop-opacity:1"
         offset="1"
         id="stop7061" />
    </linearGradient>
    <linearGradient
       id="linearGradient5539">
      <stop
         style="stop-color:black;stop-opacity:1;"
         offset="0"
         id="stop5547" />
      <stop
         id="stop5543"
         offset="1"
         style="stop-color:white;stop-opacity:1;" />
    </linearGradient>
  </defs>
  <metadata
     id="metadata9805">
    <rdf:RDF>
      <cc:Work
         rdf:about="">
        <dc:format>image/svg+xml</dc:format>
        <dc:type
           rdf:resource="http://purl.org/dc/dcmitype/StillImage" />
        <dc:title></dc:title>
      </cc:Work>
    </rdf:RDF>
  </metadata>
  <g
     transform="translate(0,-270.54165)"
     id="layer1">
    <g
       id="g8697"
       transform="matrix(0.00778973,0,0,-0.00778973,17.934611,288.13749)"
       style="fill:#ffffff;stroke-width:1.27239358">
      <path
         d="m 4441.73,958.688 c -93.11,0 -176.34,-45.219 -214.08,-116.614 -34.99,-65.523 -50.97,-151.523 -50.97,-275.23 0,-150.27 24.61,-281.313 64.08,-348.258 37.91,-64.102 131.04,-107.848 212.7,-107.848 81.59,0 141.31,29.157 186.55,85.907 49.53,62.734 72.74,142.761 72.74,307.468 0,147.192 -14.55,247.621 -48.13,317.657 -34.81,74.277 -107.84,136.918 -222.89,136.918 z m 0,96.092 c 173.34,0 266.68,-91.772 314.78,-163.163 62.65,-93.129 90.25,-209.719 90.25,-369.988 0,-192.406 -43.58,-313.336 -145.68,-406.551 -74.36,-66.9764 -150.07,-96.1366 -253.58,-96.1366 -122.37,0 -216.92,49.5703 -284.08,126.8126 -78.61,90.312 -119.31,225.781 -119.31,396.281 0,317.465 151.44,512.745 397.62,512.745"
         style="fill:#ffffff;fill-opacity:1;fill-rule:nonzero;stroke:none;stroke-width:1.27239358"
         id="path8677" />
      <path
         d="M 5557.4,963.008 5504.88,877 c -96.21,62.715 -157.39,84.566 -243.21,84.566 -125.34,0 -199.71,-62.636 -199.71,-164.617 0,-80.125 48.08,-125.336 166.13,-163.164 l 115.06,-36.363 c 88.79,-27.703 135.47,-53.973 176.25,-100.637 40.88,-46.547 65.61,-113.5 65.61,-176.234 0,-93.321 -49.55,-183.547 -138.34,-240.3908 -65.6,-42.2383 -132.76,-61.2188 -224.43,-61.2188 -119.49,0 -221.46,29.1602 -320.57,90.3676 l 52.44,93.312 c 83.12,-59.844 167.58,-86.121 268.13,-86.121 75.69,0 116.57,11.754 158.83,43.785 48.1,36.36 71.37,84.453 71.37,142.766 0,88.894 -58.29,150.058 -179.22,186.429 l -100.54,30.61 c -90.42,27.695 -138.33,48.09 -177.69,88.984 -40.88,43.672 -62.74,98.988 -62.74,163.059 0,170.476 129.71,287.067 323.48,287.067 107.73,0 206.9,-32.02 301.67,-96.192"
         style="fill:#ffffff;fill-opacity:1;fill-rule:nonzero;stroke:none;stroke-width:1.27239358"
         id="path8679" />
      <path
         d="M 527.73,915.867 H 172.59 V 634.086 H 461.723 V 494.59 H 172.59 V 19.4492 H 0 V 1056.8 H 548.75 L 527.73,915.867"
         style="fill:#ffffff;fill-opacity:1;fill-rule:nonzero;stroke:none;stroke-width:1.27239358"
         id="path8681" />
      <path
         d="m 617.66,999.949 c 0,61.371 47.981,110.821 109.449,110.821 58.438,0 107.832,-48 107.832,-110.821 0,-60.023 -49.394,-109.48 -110.902,-109.48 -59.894,0 -106.379,49.457 -106.379,109.48"
         style="fill:#ffffff;fill-opacity:1;fill-rule:nonzero;stroke:none;stroke-width:1.27239358"
         id="path8683" />
      <path
         d="M 641.578,19.4492 V 765.988 L 808.02,796 V 19.4492 H 641.578"
         style="fill:#ffffff;fill-opacity:1;fill-rule:nonzero;stroke:none;stroke-width:1.27239358"
         id="path8685" />
      <path
         d="m 1320.68,634.086 c -16.44,5.969 -28.57,10.476 -46.28,10.476 -69.17,0 -127.57,-50.968 -142.55,-112.363 V 19.4492 H 966.992 V 554.719 c 0,95.812 -10.476,157.383 -26.941,203.843 l 151.409,38.876 c 17.91,-34.348 28.45,-78.032 28.45,-119.961 59.84,82.539 119.96,121.402 193.37,121.402 23.85,0 38.87,-2.879 58.5,-11.828 l -51.1,-152.965"
         style="fill:#ffffff;fill-opacity:1;fill-rule:nonzero;stroke:none;stroke-width:1.27239358"
         id="path8687" />
      <path
         d="m 1674.61,671.508 c -93.02,0 -143.92,-73.313 -143.92,-196.254 h 280.35 c 0,122.941 -53.97,196.254 -136.43,196.254 z M 1529.25,353.754 v -11.848 c 0,-105.066 38.96,-215.886 187.5,-215.886 70.33,0 131.71,25.418 188.66,74.843 l 64.45,-100.332 C 1890.4,33.1094 1799,0 1697.03,0 c -214.24,0 -349.22,154.484 -349.22,397.141 0,133.621 28.58,222.043 94.48,296.886 61.47,70.508 136.42,101.973 232.32,101.973 75.05,0 143.93,-19.535 208.39,-77.93 65.89,-60.023 98.99,-152.968 98.99,-329.785 v -34.531 h -452.74"
         style="fill:#ffffff;fill-opacity:1;fill-rule:nonzero;stroke:none;stroke-width:1.27239358"
         id="path8689" />
      <path
         d="m 2451.08,972.82 c -37.32,17.895 -59.94,27.129 -91.4,27.129 -56.95,0 -92.82,-39.062 -92.82,-106.5 V 778.012 h 197.78 l -41.94,-114 H 2268.29 V 19.4492 H 2104.94 V 664.012 h -70.33 v 114 h 73.4 c 0,0 -4.7,41.843 -4.7,112.457 0,157.181 96.11,230.691 230.89,230.691 64.54,0 118.51,-13.47 170.95,-43.49 l -54.07,-104.85"
         style="fill:#ffffff;fill-opacity:1;fill-rule:nonzero;stroke:none;stroke-width:1.27239358"
         id="path8691" />
      <path
         d="m 2624.24,407.727 c 0,-220.301 55.6,-284.766 154.42,-284.766 97.44,0 151.42,79.355 151.42,269.855 0,214.329 -59.95,278.692 -155.86,278.692 -104.86,0 -149.98,-79.274 -149.98,-263.781 z m 487.28,-11.934 C 3111.52,151.438 2980.86,0 2775.67,0 c -205.3,0 -334.3,154.484 -334.3,397.141 0,242.914 130.44,398.859 331.42,398.859 215.89,0 338.73,-160.48 338.73,-400.207"
         style="fill:#ffffff;fill-opacity:1;fill-rule:nonzero;stroke:none;stroke-width:1.27239358"
         id="path8693" />
      <path
         d="M 3606.29,19.4492 C 3579.36,63.1211 3456.3,275.91 3441.48,302.863 3413.02,245.902 3304.88,61.5781 3276.49,19.4492 h -208.24 l 281.67,410.7778 -218.68,325.265 178.18,35.977 c 34.53,-56.953 102.07,-175.371 138.05,-245.789 20.96,49.441 97.33,200.859 119.96,232.332 h 191.74 L 3535.86,433.109 3813.16,19.4492 h -206.87"
         style="fill:#ffffff;fill-opacity:1;fill-rule:nonzero;stroke:none;stroke-width:1.27239358"
         id="path8695" />
    </g>
  </g>
</svg>
