<?xml version="1.0" encoding="UTF-8" standalone="no"?>
<svg
   xmlns:dc="http://purl.org/dc/elements/1.1/"
   xmlns:cc="http://creativecommons.org/ns#"
   xmlns:rdf="http://www.w3.org/1999/02/22-rdf-syntax-ns#"
   xmlns:svg="http://www.w3.org/2000/svg"
   xmlns="http://www.w3.org/2000/svg"
   xmlns:xlink="http://www.w3.org/1999/xlink"
   width="300"
   height="100"
   viewBox="0 0 79.374998 26.458334"
   version="1.1"
   id="svg9808">
  <defs
     id="defs9802">
    <linearGradient
       xlink:href="#linearGradient7063"
       id="linearGradient8799"
       gradientUnits="userSpaceOnUse"
       gradientTransform="matrix(0.28147491,0,0,0.28047312,39047.951,8043.712)"
       x1="10340.06"
       y1="279.31326"
       x2="10340.06"
       y2="370.92719" />
    <linearGradient
       id="linearGradient7063">
      <stop
         id="stop7059"
         offset="0"
         style="stop-color:black;stop-opacity:1;" />
      <stop
         id="stop7061"
         offset="1"
         style="stop-color:#353535;stop-opacity:1" />
    </linearGradient>
    <linearGradient
       xlink:href="#linearGradient5539"
       id="linearGradient8801"
       gradientUnits="userSpaceOnUse"
       gradientTransform="matrix(0.27919182,0,0,0.23761125,39479.599,-8790.0749)"
       x1="8878.2764"
       y1="71158.859"
       x2="8879.6631"
       y2="71211.859" />
    <linearGradient
       id="linearGradient5539">
      <stop
         id="stop5547"
         offset="0"
         style="stop-color:black;stop-opacity:1;" />
      <stop
         style="stop-color:white;stop-opacity:1;"
         offset="1"
         id="stop5543" />
    </linearGradient>
  </defs>
  <metadata
     id="metadata9805">
    <rdf:RDF>
      <cc:Work
         rdf:about="">
        <dc:format>image/svg+xml</dc:format>
        <dc:type
           rdf:resource="http://purl.org/dc/dcmitype/StillImage" />
        <dc:title></dc:title>
      </cc:Work>
    </rdf:RDF>
  </metadata>
  <g
     id="layer1"
     transform="translate(0,-270.54165)">
    <g
       transform="matrix(0.27319311,0,0,0.27319311,-11416.323,-1941.3038)"
       id="g8793">
      <g
         id="text8787"
         style="font-style:normal;font-weight:normal;font-size:12.3240881px;line-height:0%;font-family:'Bitstream Vera Sans';fill:#ffffff;fill-opacity:1;stroke:none;stroke-width:0.54035223"
         transform="scale(1.0647712,0.93916891)"
         aria-label="krellian">
        <path
           id="path11577"
           style="fill:#ffffff;fill-opacity:1;stroke-width:0.54035223"
           d="m 39311.659,8697.4821 -5.971,-9.8122 -3.667,3.469 v 5.3769 q 0,1.9575 -1.041,3.0229 -1.016,1.0407 -2.354,1.0407 -1.561,0 -2.453,-1.0407 -0.892,-1.0407 -0.892,-3.0725 v -28.8419 q 0,-2.2548 0.867,-3.4194 0.867,-1.1894 2.478,-1.1894 1.561,0 2.478,1.0655 0.917,1.0655 0.917,3.1468 v 16.4033 l 7.607,-7.9786 q 1.412,-1.4867 2.155,-2.0319 0.744,-0.5451 1.809,-0.5451 1.264,0 2.106,0.8177 0.843,0.7929 0.843,2.007 0,1.4867 -2.751,3.9646 l -3.593,3.2955 6.938,10.9024 q 0.769,1.2142 1.091,1.8584 0.347,0.6195 0.347,1.1894 0,1.6105 -0.892,2.5521 -0.868,0.9168 -2.305,0.9168 -1.239,0 -1.908,-0.669 -0.669,-0.669 -1.809,-2.4283 z" />
        <path
           id="path11579"
           style="fill:#ffffff;fill-opacity:1;stroke-width:0.54035223"
           d="m 39330.664,8690.8168 v 5.6494 q 0,2.0566 -0.966,3.0973 -0.966,1.0159 -2.453,1.0159 -1.462,0 -2.404,-1.0407 -0.941,-1.0407 -0.941,-3.0725 v -18.8315 q 0,-4.5592 3.295,-4.5592 1.685,0 2.429,1.0655 0.743,1.0655 0.817,3.1468 1.214,-2.0813 2.478,-3.1468 1.289,-1.0655 3.42,-1.0655 2.13,0 4.138,1.0655 2.007,1.0655 2.007,2.8247 0,1.2389 -0.868,2.0566 -0.842,0.7929 -1.833,0.7929 -0.372,0 -1.809,-0.446 -1.412,-0.4708 -2.503,-0.4708 -1.486,0 -2.428,0.7929 -0.942,0.7681 -1.462,2.3044 -0.52,1.5363 -0.718,3.6672 -0.199,2.1061 -0.199,5.1539 z" />
        <path
           id="path11581"
           style="fill:#ffffff;fill-opacity:1;stroke-width:0.54035223"
           d="m 39363.793,8688.4876 h -13.232 q 0.03,2.3044 0.917,4.0637 0.917,1.7592 2.404,2.6512 1.511,0.892 3.32,0.892 1.214,0 2.205,-0.2725 1.016,-0.2974 1.958,-0.892 0.941,-0.6195 1.734,-1.3133 0.793,-0.6938 2.057,-1.8831 0.52,-0.446 1.486,-0.446 1.041,0 1.685,0.5699 0.645,0.5699 0.645,1.6106 0,0.9167 -0.719,2.1557 -0.719,1.2141 -2.181,2.3539 -1.437,1.115 -3.642,1.8584 -2.18,0.7433 -5.03,0.7433 -6.517,0 -10.134,-3.7167 -3.618,-3.7168 -3.618,-10.0848 0,-2.9982 0.892,-5.5503 0.892,-2.577 2.602,-4.4106 1.71,-1.8336 4.212,-2.7999 2.503,-0.9911 5.551,-0.9911 3.964,0 6.789,1.6849 2.849,1.6601 4.262,4.3114 1.412,2.6513 1.412,5.4017 0,2.5521 -1.462,3.3203 -1.462,0.7433 -4.113,0.7433 z m -13.232,-3.8406 h 12.266 q -0.248,-3.469 -1.884,-5.1787 -1.61,-1.7345 -4.261,-1.7345 -2.528,0 -4.163,1.7593 -1.611,1.7345 -1.958,5.1539 z" />
        <path
           id="path11583"
           style="font-style:normal;font-variant:normal;font-weight:bold;font-stretch:normal;font-size:50.74592972px;line-height:1.25;font-family:'Arial Rounded MT Bold';-inkscape-font-specification:'Arial Rounded MT Bold, Bold';fill:#ffffff;fill-opacity:1;stroke-width:0.54035223"
           d="m 39375.092,8696.4662 v -29.3375 q 0,-2.0318 0.892,-3.0725 0.917,-1.0407 2.453,-1.0407 1.536,0 2.478,1.0407 0.941,1.0159 0.941,3.0725 v 29.3375 q 0,2.0566 -0.966,3.0973 -0.942,1.0159 -2.453,1.0159 -1.487,0 -2.428,-1.0654 -0.917,-1.0655 -0.917,-3.0478 z" />
        <path
           id="path11585"
           style="font-style:normal;font-variant:normal;font-weight:bold;font-stretch:normal;font-size:50.74592972px;line-height:1.25;font-family:'Arial Rounded MT Bold';-inkscape-font-specification:'Arial Rounded MT Bold, Bold';fill:#ffffff;fill-opacity:1;stroke-width:0.54035223"
           d="m 39388.869,8696.4662 v -29.3375 q 0,-2.0318 0.892,-3.0725 0.916,-1.0407 2.453,-1.0407 1.536,0 2.477,1.0407 0.942,1.0159 0.942,3.0725 v 29.3375 q 0,2.0566 -0.966,3.0973 -0.942,1.0159 -2.453,1.0159 -1.487,0 -2.429,-1.0654 -0.916,-1.0655 -0.916,-3.0478 z" />
        <path
           id="path11587"
           style="fill:#ffffff;fill-opacity:1;stroke-width:0.54035223"
           d="m 39409.41,8676.9162 v 19.55 q 0,2.0318 -0.967,3.0725 -0.966,1.0407 -2.453,1.0407 -1.486,0 -2.428,-1.0654 -0.917,-1.0655 -0.917,-3.0478 v -19.3518 q 0,-2.0071 0.917,-3.023 0.942,-1.0159 2.428,-1.0159 1.487,0 2.453,1.0159 0.967,1.0159 0.967,2.8248 z m -3.345,-6.9875 q -1.413,0 -2.429,-0.8673 -0.991,-0.8672 -0.991,-2.453 0,-1.4372 1.016,-2.3539 1.041,-0.9416 2.404,-0.9416 1.313,0 2.329,0.8424 1.016,0.8425 1.016,2.4531 0,1.561 -0.991,2.453 -0.992,0.8673 -2.354,0.8673 z" />
        <path
           id="path11589"
           style="fill:#ffffff;fill-opacity:1;stroke-width:0.54035223"
           d="m 39433.519,8696.7636 q -2.453,1.9079 -4.757,2.8742 -2.28,0.9416 -5.13,0.9416 -2.601,0 -4.584,-1.0159 -1.957,-1.0407 -3.022,-2.7999 -1.066,-1.7593 -1.066,-3.8159 0,-2.7752 1.759,-4.7326 1.76,-1.9575 4.832,-2.6265 0.644,-0.1487 3.196,-0.6691 2.553,-0.5203 4.361,-0.9415 1.834,-0.446 3.965,-1.0655 -0.124,-2.6761 -1.09,-3.915 -0.942,-1.2637 -3.94,-1.2637 -2.577,0 -3.89,0.7186 -1.289,0.7186 -2.23,2.1557 -0.917,1.4372 -1.314,1.9079 -0.371,0.4461 -1.635,0.4461 -1.14,0 -1.982,-0.7186 -0.818,-0.7434 -0.818,-1.8832 0,-1.784 1.264,-3.4689 1.264,-1.6849 3.94,-2.7752 2.676,-1.0902 6.665,-1.0902 4.46,0 7.012,1.0654 2.552,1.0407 3.593,3.3203 1.066,2.2796 1.066,6.0459 0,2.3787 -0.03,4.0389 0,1.6601 -0.03,3.6919 0,1.908 0.619,3.9894 0.645,2.0565 0.645,2.6512 0,1.0407 -0.991,1.908 -0.967,0.8424 -2.206,0.8424 -1.04,0 -2.056,-0.9663 -1.016,-0.9912 -2.156,-2.8495 z m -0.446,-9.7875 q -1.487,0.5452 -4.336,1.1646 -2.825,0.5947 -3.915,0.892 -1.09,0.2726 -2.082,1.1151 -0.991,0.8176 -0.991,2.3043 0,1.5363 1.165,2.6265 1.164,1.0655 3.048,1.0655 2.007,0 3.692,-0.8672 1.709,-0.8921 2.502,-2.2796 0.917,-1.5363 0.917,-5.0548 z" />
        <path
           id="path11591"
           style="fill:#ffffff;fill-opacity:1;stroke-width:0.54035223"
           d="m 39452.697,8676.817 v 0.8177 q 1.784,-2.3539 3.891,-3.4442 2.131,-1.115 4.881,-1.115 2.676,0 4.782,1.1646 2.106,1.1646 3.147,3.2955 0.669,1.2389 0.867,2.6761 0.198,1.4371 0.198,3.6672 v 12.5873 q 0,2.0318 -0.941,3.0725 -0.917,1.0407 -2.404,1.0407 -1.511,0 -2.453,-1.0654 -0.941,-1.0655 -0.941,-3.0478 v -11.2741 q 0,-3.3451 -0.942,-5.1043 -0.917,-1.7841 -3.692,-1.7841 -1.809,0 -3.295,1.0903 -1.487,1.0654 -2.181,2.9486 -0.495,1.5115 -0.495,5.6494 v 8.4742 q 0,2.0566 -0.967,3.0973 -0.941,1.0159 -2.453,1.0159 -1.462,0 -2.403,-1.0654 -0.942,-1.0655 -0.942,-3.0478 v -19.55 q 0,-1.9328 0.843,-2.8743 0.842,-0.9664 2.304,-0.9664 0.892,0 1.611,0.4213 0.718,0.4212 1.139,1.2636 0.446,0.8425 0.446,2.0566 z" />
      </g>
      <path
         d="m 41952.156,8147.288 c 0,0 6.217,-8.7681 12.624,-0.1331 -1.875,-2.8939 -1.896,-6.0947 -0.442,-10.0184 4.76,-12.8474 30.675,-6.6242 30.626,-6.6301 -0.05,0 -28.595,-20.0074 -36.571,-0.017 -7.976,-20.0118 -36.521,-0.01 -36.472,-0.01 0.05,0 25.966,-6.2231 30.726,6.6244 1.453,3.9235 1.353,7.4015 -0.491,10.1837 z"
         style="fill:url(#linearGradient8799);fill-opacity:1;fill-rule:evenodd;stroke:none;stroke-width:0.21057096"
         id="path8789" />
      <path
         style="fill:url(#linearGradient8801);fill-opacity:1;fill-rule:evenodd;stroke:none;stroke-width:0.21057096"
         d="m 41958.438,8118.0713 c -1.702,0 -3.551,0.4136 -5.574,1.7065 -1.762,1.1251 -5.674,1.9467 -5.674,1.9467 0,0 7.974,0.4164 11.18,8.7954 3.185,-8.3268 11.123,-8.8053 11.123,-8.8053 0,0 -3.55,-1.0655 -5.5,-2.1326 -1.75,-0.9583 -3.889,-1.5102 -5.555,-1.5107 z"
         id="path8791" />
    </g>
  </g>
</svg>
