<?xml version="1.0" encoding="UTF-8" standalone="no"?>
<svg
   xmlns:dc="http://purl.org/dc/elements/1.1/"
   xmlns:cc="http://creativecommons.org/ns#"
   xmlns:rdf="http://www.w3.org/1999/02/22-rdf-syntax-ns#"
   xmlns:svg="http://www.w3.org/2000/svg"
   xmlns="http://www.w3.org/2000/svg"
   xmlns:xlink="http://www.w3.org/1999/xlink"
   id="svg9808"
   version="1.1"
   viewBox="0 0 79.374998 26.458334"
   height="100"
   width="300">
  <defs
     id="defs9802">
    <linearGradient
       y2="370.92719"
       x2="10340.06"
       y1="279.31326"
       x1="10340.06"
       gradientTransform="matrix(0.28147491,0,0,0.28047312,39047.951,8043.712)"
       gradientUnits="userSpaceOnUse"
       id="linearGradient8799"
       xlink:href="#linearGradient7063" />
    <linearGradient
       id="linearGradient7063">
      <stop
         style="stop-color:black;stop-opacity:1;"
         offset="0"
         id="stop7059" />
      <stop
         style="stop-color:#353535;stop-opacity:1"
         offset="1"
         id="stop7061" />
    </linearGradient>
    <linearGradient
       y2="71211.859"
       x2="8879.6631"
       y1="71158.859"
       x1="8878.2764"
       gradientTransform="matrix(0.27919182,0,0,0.23761125,39479.599,-8790.0749)"
       gradientUnits="userSpaceOnUse"
       id="linearGradient8801"
       xlink:href="#linearGradient5539" />
    <linearGradient
       id="linearGradient5539">
      <stop
         style="stop-color:black;stop-opacity:1;"
         offset="0"
         id="stop5547" />
      <stop
         id="stop5543"
         offset="1"
         style="stop-color:white;stop-opacity:1;" />
    </linearGradient>
  </defs>
  <metadata
     id="metadata9805">
    <rdf:RDF>
      <cc:Work
         rdf:about="">
        <dc:format>image/svg+xml</dc:format>
        <dc:type
           rdf:resource="http://purl.org/dc/dcmitype/StillImage" />
        <dc:title></dc:title>
      </cc:Work>
    </rdf:RDF>
  </metadata>
  <g
     transform="translate(0,-270.54165)"
     id="layer1">
    <g
       id="g8793"
       transform="matrix(0.27319311,0,0,0.27319311,-11416.323,-1941.3038)">
      <text
         id="text8787"
         y="8699.96"
         x="39291.316"
         style="font-style:normal;font-weight:normal;font-size:12.3240881px;line-height:0%;font-family:'Bitstream Vera Sans';fill:#ffffff;fill-opacity:1;stroke:none;stroke-width:0.54035223"
         xml:space="preserve"
         transform="scale(1.0647712,0.93916891)"><tspan
           style="font-style:normal;font-variant:normal;font-weight:bold;font-stretch:normal;font-size:50.74592972px;line-height:1.25;font-family:'Arial Rounded MT Bold';-inkscape-font-specification:'Arial Rounded MT Bold, Bold';fill:#ffffff;fill-opacity:1;stroke-width:0.54035223"
           y="8699.96"
           x="39291.316"
           id="tspan8785"><tspan
   style="fill:#ffffff;fill-opacity:1;stroke-width:0.54035223"
   id="tspan8781">kre</tspan>ll<tspan
   style="fill:#ffffff;fill-opacity:1;stroke-width:0.54035223"
   id="tspan8783">ian</tspan></tspan></text>
      <path
         id="path8789"
         style="fill:url(#linearGradient8799);fill-opacity:1;fill-rule:evenodd;stroke:none;stroke-width:0.21057096"
         d="m 41952.156,8147.288 c 0,0 6.217,-8.7681 12.624,-0.1331 -1.875,-2.8939 -1.896,-6.0947 -0.442,-10.0184 4.76,-12.8474 30.675,-6.6242 30.626,-6.6301 -0.05,0 -28.595,-20.0074 -36.571,-0.017 -7.976,-20.0118 -36.521,-0.01 -36.472,-0.01 0.05,0 25.966,-6.2231 30.726,6.6244 1.453,3.9235 1.353,7.4015 -0.491,10.1837 z" />
      <path
         id="path8791"
         d="m 41958.438,8118.0713 c -1.702,0 -3.551,0.4136 -5.574,1.7065 -1.762,1.1251 -5.674,1.9467 -5.674,1.9467 0,0 7.974,0.4164 11.18,8.7954 3.185,-8.3268 11.123,-8.8053 11.123,-8.8053 0,0 -3.55,-1.0655 -5.5,-2.1326 -1.75,-0.9583 -3.889,-1.5102 -5.555,-1.5107 z"
         style="fill:url(#linearGradient8801);fill-opacity:1;fill-rule:evenodd;stroke:none;stroke-width:0.21057096" />
    </g>
  </g>
</svg>
