<?xml version="1.0" encoding="UTF-8" standalone="no"?>
<svg
   xmlns:dc="http://purl.org/dc/elements/1.1/"
   xmlns:cc="http://creativecommons.org/ns#"
   xmlns:rdf="http://www.w3.org/1999/02/22-rdf-syntax-ns#"
   xmlns:svg="http://www.w3.org/2000/svg"
   xmlns="http://www.w3.org/2000/svg"
   id="svg9808"
   version="1.1"
   viewBox="0 0 79.374998 26.458334"
   height="100"
   width="300">
  <defs
     id="defs9802">
    <linearGradient
       id="linearGradient7063">
      <stop
         style="stop-color:black;stop-opacity:1;"
         offset="0"
         id="stop7059" />
      <stop
         style="stop-color:#353535;stop-opacity:1"
         offset="1"
         id="stop7061" />
    </linearGradient>
    <linearGradient
       id="linearGradient5539">
      <stop
         style="stop-color:black;stop-opacity:1;"
         offset="0"
         id="stop5547" />
      <stop
         id="stop5543"
         offset="1"
         style="stop-color:white;stop-opacity:1;" />
    </linearGradient>
  </defs>
  <metadata
     id="metadata9805">
    <rdf:RDF>
      <cc:Work
         rdf:about="">
        <dc:format>image/svg+xml</dc:format>
        <dc:type
           rdf:resource="http://purl.org/dc/dcmitype/StillImage" />
        <dc:title></dc:title>
      </cc:Work>
    </rdf:RDF>
  </metadata>
  <g
     transform="translate(0,-270.54165)"
     id="layer1">
    <g
       style="stroke-width:1.59622681"
       id="g8659"
       transform="matrix(0.16575547,0,0,0.16575547,-372.87787,-1254.0027)">
      <g
         transform="matrix(3.7795275,0,0,3.7795275,2339.796,8204.8427)"
         aria-label="WebThings"
         style="font-style:normal;font-weight:normal;font-size:3.41925216px;line-height:0%;font-family:sans-serif;letter-spacing:0px;word-spacing:0px;fill:#ffffff;fill-opacity:1;stroke:none;stroke-width:0.45482516px;stroke-linecap:butt;stroke-linejoin:miter;stroke-opacity:1"
         id="g8653">
        <path
           d="M 15.233577,272.65876 H 14.38992 l -2.817496,8.83453 h -1.305281 l -2.530971,-7.29047 h -0.07959 l -2.451381,7.29047 H 3.8840024 L 0.89140774,272.65876 H -3.4216642e-6 v -1.51221 H 3.9317565 v 1.51221 h -1.1461 l 1.7828223,5.92152 h 0.07959 l 2.0534293,-5.92152 h -0.907329 v -1.51221 H 9.710011 v 1.51221 H 8.866354 l 2.053429,6.00111 h 0.07959 l 1.623641,-6.00111 H 11.34957 v -1.51221 h 3.884006 z"
           style="font-style:normal;font-variant:normal;font-weight:600;font-stretch:normal;font-size:15.91805649px;line-height:1.25;font-family:'Zilla Slab';-inkscape-font-specification:'Zilla Slab Semi-Bold';text-align:start;text-anchor:start;fill:#ffffff;fill-opacity:1;stroke-width:0.45482516px"
           id="path8635" />
        <path
           d="m 21.682131,279.31251 q -0.09551,0.93917 -0.923248,1.63956 -0.827739,0.7004 -2.276282,0.7004 -1.559969,0 -2.562807,-0.90733 -1.002837,-0.92325 -1.002837,-2.70607 0,-1.63956 0.907329,-2.73791 0.923247,-1.09834 2.562807,-1.09834 1.480379,0 2.339954,0.89141 0.875493,0.87549 0.891411,2.22853 0,0.4457 -0.09551,0.95508 h -4.823171 q 0.143262,2.00567 1.910167,2.00567 0.827739,0 1.177936,-0.39795 0.366115,-0.39795 0.477542,-0.84365 z m -1.814659,-2.08526 q 0.06367,-0.63673 -0.302443,-1.19386 -0.350197,-0.57305 -1.193854,-0.57305 -0.764067,0 -1.162018,0.50938 -0.397952,0.50938 -0.49346,1.25753 z"
           style="font-style:normal;font-variant:normal;font-weight:600;font-stretch:normal;font-size:15.91805649px;line-height:1.25;font-family:'Zilla Slab';-inkscape-font-specification:'Zilla Slab Semi-Bold';text-align:start;text-anchor:start;fill:#ffffff;fill-opacity:1;stroke-width:0.45482516px"
           id="path8637" />
        <path
           d="m 30.333843,277.75254 q 0,1.51222 -0.795903,2.70607 -0.795903,1.19386 -2.45138,1.19386 -1.687314,0 -2.371791,-1.27345 -0.03184,0.19102 -0.07959,0.55713 -0.04775,0.36612 -0.07959,0.55714 h -1.687314 q 0.09551,-0.5253 0.175098,-1.06651 0.07959,-0.55714 0.07959,-1.08243 v -7.49741 h -1.066509 v -1.30528 h 2.753823 v 5.22113 q 0.318362,-0.63673 0.891412,-1.09835 0.588968,-0.46162 1.575887,-0.46162 1.353035,0 2.196692,0.93916 0.859575,0.92325 0.859575,2.61056 z m -1.766904,0.14327 q 0,-1.13019 -0.509378,-1.71915 -0.509378,-0.60489 -1.305281,-0.60489 -0.907329,0 -1.416707,0.66856 -0.509378,0.66856 -0.525296,1.44854 v 0.50938 q 0,0.87549 0.509378,1.4963 0.525296,0.60488 1.368953,0.60488 0.891411,0 1.384871,-0.65264 0.49346,-0.65264 0.49346,-1.75098 z"
           style="font-style:normal;font-variant:normal;font-weight:600;font-stretch:normal;font-size:15.91805649px;line-height:1.25;font-family:'Zilla Slab';-inkscape-font-specification:'Zilla Slab Semi-Bold';text-align:start;text-anchor:start;fill:#ffffff;fill-opacity:1;stroke-width:0.45482516px"
           id="path8639" />
        <path
           d="m 39.900595,274.52118 -1.528133,0.12734 -0.318362,-1.98976 h -2.021593 v 7.32231 h 1.735068 v 1.51222 h -5.173368 v -1.51222 h 1.671396 v -7.32231 h -2.037511 l -0.318361,1.98976 -1.512216,-0.12734 0.318361,-3.37463 h 8.866358 z"
           style="font-style:normal;font-variant:normal;font-weight:600;font-stretch:normal;font-size:15.91805649px;line-height:1.25;font-family:'Zilla Slab';-inkscape-font-specification:'Zilla Slab Semi-Bold';text-align:start;text-anchor:start;fill:#ffffff;fill-opacity:1;stroke-width:0.45482516px"
           id="path8641" />
        <path
           d="m 49.175598,281.49329 h -3.836252 v -1.30528 h 1.06651 v -2.80158 q 0,-1.01876 -0.382033,-1.43263 -0.382033,-0.42979 -1.034674,-0.42979 -0.779985,0 -1.241608,0.50938 -0.461624,0.50938 -0.49346,1.24161 v 2.91301 h 1.050592 v 1.30528 h -3.820334 v -1.30528 h 1.06651 v -8.34107 h -1.06651 v -1.30528 h 2.769742 v 4.98235 q 0.732231,-1.32119 2.37179,-1.32119 1.034674,0 1.750987,0.6208 0.73223,0.6208 0.73223,1.942 v 3.42239 h 1.06651 z"
           style="font-style:normal;font-variant:normal;font-weight:600;font-stretch:normal;font-size:15.91805649px;line-height:1.25;font-family:'Zilla Slab';-inkscape-font-specification:'Zilla Slab Semi-Bold';text-align:start;text-anchor:start;fill:#ffffff;fill-opacity:1;stroke-width:0.45482516px"
           id="path8643" />
        <path
           d="m 50.835307,272.8657 v -1.87833 h 1.735069 v 1.87833 z m 2.849332,8.62759 h -3.820333 v -1.30528 h 1.06651 v -4.52073 h -1.130182 v -1.3212 h 2.817496 v 5.84193 h 1.066509 z"
           style="font-style:normal;font-variant:normal;font-weight:600;font-stretch:normal;font-size:15.91805649px;line-height:1.25;font-family:'Zilla Slab';-inkscape-font-specification:'Zilla Slab Semi-Bold';text-align:start;text-anchor:start;fill:#ffffff;fill-opacity:1;stroke-width:0.45482516px"
           id="path8645" />
        <path
           d="m 63.155383,281.49329 h -3.820334 v -1.30528 h 1.050592 v -2.80158 q 0,-1.01876 -0.366115,-1.43263 -0.366116,-0.42979 -1.018756,-0.42979 -0.811821,0 -1.289362,0.5253 -0.461624,0.5253 -0.477542,1.28936 v 2.84934 h 1.06651 v 1.30528 h -3.836252 v -1.30528 h 1.06651 v -4.52073 H 54.41637 v -1.3212 h 2.817496 v 1.16202 q 0.748148,-1.30528 2.37179,-1.30528 1.018756,0 1.750986,0.6208 0.732231,0.6208 0.732231,1.942 v 3.42239 h 1.06651 z"
           style="font-style:normal;font-variant:normal;font-weight:600;font-stretch:normal;font-size:15.91805649px;line-height:1.25;font-family:'Zilla Slab';-inkscape-font-specification:'Zilla Slab Semi-Bold';text-align:start;text-anchor:start;fill:#ffffff;fill-opacity:1;stroke-width:0.45482516px"
           id="path8647" />
        <path
           d="m 72.020747,275.66728 h -1.034673 v 5.5554 q 0,1.70323 -0.955084,2.75382 -0.939165,1.05059 -2.817496,1.05059 -1.114264,0 -2.085265,-0.47754 -0.971001,-0.47754 -1.368953,-1.63956 l 1.321199,-0.71631 q 0.668558,1.46446 2.164855,1.46446 0.891412,0 1.464462,-0.63672 0.57305,-0.63672 0.57305,-1.81466 v -1.06651 q -0.302443,0.57305 -0.875493,0.98692 -0.557132,0.39795 -1.544052,0.39795 -1.257526,0 -2.180774,-0.87549 -0.907329,-0.89141 -0.907329,-2.57873 0,-1.52813 0.811821,-2.69015 0.827739,-1.17793 2.387709,-1.17793 1.623641,0 2.308118,1.25752 v -1.11426 h 2.737905 z m -2.737905,2.41954 v -0.57305 q 0,-0.89141 -0.509378,-1.41671 -0.509378,-0.52529 -1.273445,-0.52529 -0.891411,0 -1.368952,0.65264 -0.477542,0.63672 -0.477542,1.73507 0,1.13018 0.477542,1.67139 0.477541,0.5253 1.209772,0.5253 0.907329,0 1.416707,-0.63672 0.525296,-0.63673 0.525296,-1.43263 z"
           style="font-style:normal;font-variant:normal;font-weight:600;font-stretch:normal;font-size:15.91805649px;line-height:1.25;font-family:'Zilla Slab';-inkscape-font-specification:'Zilla Slab Semi-Bold';text-align:start;text-anchor:start;fill:#ffffff;fill-opacity:1;stroke-width:0.45482516px"
           id="path8649" />
        <path
           d="m 78.953804,279.36027 q 0,1.11426 -0.923247,1.70323 -0.90733,0.58897 -2.324037,0.58897 -0.764066,0 -1.544051,-0.1751 -0.764067,-0.1751 -1.384871,-0.5253 l 0.254689,-1.84649 1.337117,0.12734 -0.01592,0.92325 q 0.302444,0.12734 0.636723,0.1751 0.350197,0.0478 0.620804,0.0478 0.65264,0 1.130182,-0.22285 0.49346,-0.23877 0.49346,-0.7004 0,-0.4457 -0.445706,-0.63672 -0.429787,-0.19101 -1.082428,-0.28652 -0.65264,-0.11143 -1.30528,-0.28653 -0.652641,-0.19101 -1.098346,-0.60488 -0.429788,-0.42979 -0.429788,-1.27345 0,-1.24161 0.939166,-1.70323 0.955083,-0.46162 2.005675,-0.46162 1.384871,0 2.610561,0.65264 l 0.175099,1.7669 -1.337117,0.15918 -0.143263,-1.06651 q -0.620804,-0.23877 -1.257526,-0.23877 -0.49346,0 -0.843657,0.20694 -0.334279,0.19101 -0.334279,0.6208 0,0.44571 0.429787,0.6208 0.429788,0.1751 1.06651,0.28653 0.636722,0.0955 1.273444,0.28652 0.636723,0.1751 1.06651,0.60489 0.429788,0.41387 0.429788,1.25753 z"
           style="font-style:normal;font-variant:normal;font-weight:600;font-stretch:normal;font-size:15.91805649px;line-height:1.25;font-family:'Zilla Slab';-inkscape-font-specification:'Zilla Slab Semi-Bold';text-align:start;text-anchor:start;fill:#ffffff;fill-opacity:1;stroke-width:0.45482516px"
           id="path8651" />
      </g>
      <rect
         style="stroke-width:0.60194486"
         x="2339.9163"
         y="9288.2568"
         width="136.81363"
         height="39.105774"
         id="rect8655" />
      <path
         id="path8657"
         d="m 2470.6207,9316.3127 c -0.2639,0.081 -0.4902,0.113 -0.7164,0.113 -0.792,0 -1.1691,-0.3394 -1.1691,-1.3196 v -7.4288 c 0,-3.9224 -3.13,-5.8074 -6.7879,-5.8074 -2.7906,0 -4.3367,0.3391 -7.3158,1.5458 l -0.6788,3.9224 3.9219,0.4149 0.5656,-1.9233 c 0.792,-0.415 1.5839,-0.4907 2.6021,-0.4907 2.7528,0 2.7905,2.0738 2.7905,3.8466 v 0.5655 c -0.8673,-0.1131 -1.8478,-0.1505 -2.7905,-0.1505 -3.922,0 -7.9569,0.9804 -7.9569,5.2036 0,3.5832 2.7906,4.9028 5.2794,4.9028 2.7529,0 4.5253,-1.6598 5.5058,-3.4318 0.2262,2.0738 1.4707,3.4318 3.771,3.4318 1.0559,0 2.1495,-0.302 3.0923,-0.7926 z m -10.5212,-0.1131 c -1.4707,0 -1.9986,-0.8672 -1.9986,-1.9606 0,-1.8476 1.5083,-2.3383 3.2807,-2.3383 0.792,0 1.6594,0.113 2.4512,0.226 -0.1508,2.829 -1.9986,4.0728 -3.7333,4.0728 z m -6.5616,-22.9658 -7.3912,26.0957 h -4.8271 l 7.3914,-26.0957 z m -9.9556,0 -7.3912,26.0957 h -4.827 l 7.3913,-26.0957 z m -20.5522,8.9755 h 5.1286 v 6.1466 h -5.1286 z m 0,10.9736 h 5.1286 v 6.1466 h -5.1286 z m -7.4667,-0.226 3.8842,0.3776 -1.0559,5.9951 h -14.971 l -0.4903,-2.5645 9.4276,-10.8221 h -5.3549 l -0.7542,2.6392 -3.5448,-0.3765 0.6034,-5.9961 h 15.0465 l 0.3771,2.5644 -9.5031,10.8232 h 5.5435 z m -24.5118,-11.0867 c -6.1468,0 -9.2014,4.1476 -9.2014,9.1634 0,5.4681 3.658,8.6736 8.9374,8.6736 5.4681,0 9.4276,-3.469 9.4276,-8.9371 -0.037,-4.7523 -3.0168,-8.8999 -9.1636,-8.8999 z m -0.1131,14.0661 c -2.6397,0 -4.035,-2.2626 -4.035,-5.242 0,-3.2429 1.5461,-5.0905 4.0727,-5.0905 2.3003,0 4.1859,1.5458 4.1859,5.0148 -0.037,3.2813 -1.697,5.3177 -4.2236,5.3177 z m -13.5003,-0.3394 h 2.2625 v 3.7326 h -7.165 v -9.654 c 0,-2.9784 -0.9804,-4.1102 -2.9036,-4.1102 -2.3381,0 -3.3186,1.6598 -3.3186,4.0728 v 5.9588 h 2.2626 v 3.7326 h -7.165 v -9.654 c 0,-2.9784 -0.9804,-4.1102 -2.9414,-4.1102 -2.338,0 -3.3184,1.6598 -3.3184,4.0728 v 5.9588 h 3.2807 v 3.7326 h -10.4081 v -3.7326 h 2.2627 v -9.6924 h -2.2627 v -3.7326 h 7.165 v 2.5634 c 1.0182,-1.8092 2.7906,-2.9036 5.2041,-2.9036 2.4512,0 4.7515,1.1691 5.5811,3.6962 0.9428,-2.2626 2.866,-3.6962 5.5812,-3.6962 3.0923,0 5.8829,1.8486 5.8829,5.9214 z"
         class="st0"
         style="fill:#ffffff;stroke-width:0.60194486" />
    </g>
  </g>
</svg>
