<?xml version="1.0" encoding="UTF-8" standalone="no"?>
<svg
   xmlns:dc="http://purl.org/dc/elements/1.1/"
   xmlns:cc="http://creativecommons.org/ns#"
   xmlns:rdf="http://www.w3.org/1999/02/22-rdf-syntax-ns#"
   xmlns:svg="http://www.w3.org/2000/svg"
   xmlns="http://www.w3.org/2000/svg"
   id="svg9808"
   version="1.1"
   viewBox="0 0 79.374998 26.458334"
   height="100"
   width="300">
  <defs
     id="defs9802">
    <linearGradient
       id="linearGradient7063">
      <stop
         style="stop-color:black;stop-opacity:1;"
         offset="0"
         id="stop7059" />
      <stop
         style="stop-color:#353535;stop-opacity:1"
         offset="1"
         id="stop7061" />
    </linearGradient>
    <linearGradient
       id="linearGradient5539">
      <stop
         style="stop-color:black;stop-opacity:1;"
         offset="0"
         id="stop5547" />
      <stop
         id="stop5543"
         offset="1"
         style="stop-color:white;stop-opacity:1;" />
    </linearGradient>
  </defs>
  <metadata
     id="metadata9805">
    <rdf:RDF>
      <cc:Work
         rdf:about="">
        <dc:format>image/svg+xml</dc:format>
        <dc:type
           rdf:resource="http://purl.org/dc/dcmitype/StillImage" />
        <dc:title></dc:title>
      </cc:Work>
    </rdf:RDF>
  </metadata>
  <g
     transform="translate(0,-270.54165)"
     id="layer1">
    <g
       id="g8675"
       style="fill:#ffffff;stroke-width:1.20995522"
       transform="matrix(0.21867201,0,0,0.21867201,-629.61081,-1666.058)">
      <path
         id="path8663"
         style="font-style:normal;font-variant:normal;font-weight:bold;font-stretch:normal;font-size:16px;font-family:'Arial Rounded MT Bold';-inkscape-font-specification:'Arial Rounded MT Bold, Bold';text-align:center;text-anchor:middle;fill:#ffffff;fill-opacity:1;stroke:none;stroke-width:4.29070091"
         d="m 2971.8788,8911.6366 4.9314,16.8997 4.4881,-15.7084 c 0.4802,-1.6438 0.8311,-2.7612 1.0527,-3.3523 0.2401,-0.6094 0.6742,-1.182 1.3022,-1.7176 0.6464,-0.5541 1.5237,-0.8311 2.6319,-0.8312 1.1266,1e-4 2.0039,0.277 2.6319,0.8312 0.6464,0.5356 1.0989,1.1266 1.3575,1.7731 0.2585,0.628 0.6187,1.7269 1.0805,3.2968 l 4.4881,15.7084 4.9868,-16.8997 c 0.3323,-1.219 0.6002,-2.0963 0.8034,-2.6319 0.2032,-0.5541 0.5449,-1.0343 1.0251,-1.4407 0.4802,-0.4247 1.1728,-0.6371 2.0778,-0.6372 0.905,1e-4 1.6899,0.3139 2.3549,0.942 0.6648,0.628 0.9973,1.3668 0.9974,2.2164 -10e-5,0.7757 -0.2862,1.9485 -0.8589,3.5184 l -6.1781,18.1187 c -0.5356,1.533 -0.9512,2.6411 -1.2467,3.3245 -0.2954,0.6834 -0.7665,1.2929 -1.4129,1.8285 -0.628,0.5356 -1.496,0.8035 -2.6042,0.8035 -1.1451,0 -2.0502,-0.2862 -2.715,-0.8589 -0.6465,-0.5726 -1.1267,-1.2744 -1.4407,-2.1055 -0.3142,-0.8312 -0.6557,-1.9116 -1.025,-3.2414 l -4.3219,-14.7388 -4.1834,14.7388 c -0.5541,2.0501 -1.1544,3.6015 -1.8008,4.6543 -0.6464,1.0343 -1.7823,1.5515 -3.4076,1.5515 -0.8312,0 -1.5422,-0.1664 -2.1332,-0.4987 -0.5726,-0.3139 -1.0528,-0.7665 -1.4407,-1.3575 -0.3879,-0.6096 -0.7295,-1.3206 -1.025,-2.1333 -0.2954,-0.8311 -0.5264,-1.4868 -0.6927,-1.967 l -6.1226,-18.1187 c -0.6095,-1.6992 -0.9143,-2.872 -0.9143,-3.5184 0,-0.8127 0.3231,-1.5422 0.9697,-2.1887 0.6464,-0.6464 1.4406,-0.9696 2.3826,-0.9697 1.2559,1e-4 2.1055,0.3602 2.5488,1.0805 0.4432,0.7019 0.9142,1.9117 1.4129,3.6293" />
      <path
         id="path8665"
         style="font-style:normal;font-variant:normal;font-weight:bold;font-stretch:normal;font-size:16px;font-family:'Arial Rounded MT Bold';-inkscape-font-specification:'Arial Rounded MT Bold, Bold';text-align:center;text-anchor:middle;fill:#ffffff;fill-opacity:1;stroke:none;stroke-width:4.29070091"
         d="m 3033.715,8924.159 h -14.7941 c 0.018,1.7177 0.3601,3.2322 1.0251,4.5435 0.6833,1.3114 1.5791,2.2995 2.6873,2.9644 1.1266,0.6649 2.3641,0.9973 3.7124,0.9973 0.905,0 1.7269,-0.1014 2.4657,-0.3046 0.7572,-0.2216 1.4867,-0.5541 2.1886,-0.9973 0.7018,-0.4618 1.3483,-0.9512 1.9393,-1.4684 0.591,-0.5171 1.3575,-1.219 2.2995,-2.1055 0.3878,-0.3323 0.9419,-0.4987 1.6623,-0.4987 0.7757,0 1.4036,0.2124 1.8839,0.6372 0.4801,0.4248 0.7202,1.0251 0.7203,1.8008 -10e-5,0.6834 -0.2678,1.4868 -0.8035,2.4103 -0.5356,0.905 -1.3483,1.7823 -2.4379,2.6319 -1.0713,0.8311 -2.4288,1.5237 -4.0726,2.0778 -1.6254,0.5541 -3.5,0.8312 -5.624,0.8312 -4.8575,0 -8.6346,-1.3853 -11.3311,-4.1557 -2.6966,-2.7705 -4.0449,-6.529 -4.0448,-11.2757 -1e-4,-2.2348 0.3322,-4.3034 0.9973,-6.2058 0.6649,-1.9208 1.6346,-3.5646 2.909,-4.9314 1.2744,-1.3667 2.8443,-2.4102 4.7097,-3.1306 1.8654,-0.7387 3.934,-1.1081 6.2058,-1.1081 2.9551,0 5.4855,0.6279 7.591,1.8839 2.124,1.2374 3.7124,2.8443 4.7652,4.8205 1.0527,1.9763 1.5791,3.9895 1.5791,6.0396 0,1.9024 -0.5448,3.1398 -1.6345,3.7124 -1.0898,0.554 -2.6227,0.8311 -4.599,0.8311 m -14.7941,-4.2942 h 13.7137 c -0.1848,-2.5857 -0.8866,-4.5158 -2.1056,-5.7902 -1.2005,-1.2929 -2.7889,-1.9393 -4.7651,-1.9393 -1.8839,0 -3.4354,0.6557 -4.6544,1.967 -1.2005,1.2929 -1.93,3.2137 -2.1886,5.7625" />
      <path
         id="path8667"
         style="font-style:normal;font-variant:normal;font-weight:bold;font-stretch:normal;font-size:16px;font-family:'Arial Rounded MT Bold';-inkscape-font-specification:'Arial Rounded MT Bold, Bold';text-align:center;text-anchor:middle;fill:#ffffff;fill-opacity:1;stroke:none;stroke-width:4.29070091"
         d="m 3052.4986,8900.0008 v 11.5527 c 1.4222,-1.4776 2.8721,-2.6042 4.3496,-3.38 1.4776,-0.7941 3.3061,-1.1912 5.4855,-1.1912 2.5119,0 4.7097,0.6002 6.5937,1.8007 1.9023,1.1821 3.3706,2.909 4.4049,5.1808 1.0528,2.2533 1.5792,4.9314 1.5792,8.0342 0,2.2903 -0.2954,4.3958 -0.8865,6.3166 -0.5726,1.9024 -1.413,3.5555 -2.5211,4.9591 -1.1082,1.4037 -2.4565,2.4934 -4.0449,3.2692 -1.5699,0.7572 -3.306,1.1359 -5.2084,1.1359 -1.1636,0 -2.2625,-0.1387 -3.2968,-0.4156 -1.0159,-0.277 -1.884,-0.6372 -2.6043,-1.0805 -0.7203,-0.4617 -1.339,-0.9327 -1.8562,-1.4129 -0.4987,-0.4802 -1.1636,-1.2006 -1.9947,-2.161 v 0.7481 c 0,1.4221 -0.3418,2.5026 -1.025,3.2414 -0.6834,0.7203 -1.5515,1.0805 -2.6042,1.0805 -1.0713,0 -1.9301,-0.3602 -2.5766,-1.0805 -0.6279,-0.7388 -0.9419,-1.8193 -0.9419,-3.2414 v -33.0237 c 0,-1.533 0.3046,-2.6873 0.9142,-3.4631 0.628,-0.7941 1.4961,-1.1912 2.6043,-1.1912 1.1635,0 2.0593,0.3786 2.6873,1.1358 0.6279,0.7388 0.9419,1.8008 0.9419,3.1861 m 0.3602,22.4682 c 0,3.0106 0.6834,5.3285 2.0501,6.9538 1.3852,1.6069 3.1953,2.4103 5.4301,2.4103 1.9023,0 3.5369,-0.8219 4.9037,-2.4657 1.3852,-1.6622 2.0778,-4.0356 2.0778,-7.12 0,-1.9947 -0.2862,-3.7124 -0.8588,-5.153 -0.5726,-1.4407 -1.3853,-2.5488 -2.438,-3.3246 -1.0528,-0.7941 -2.281,-1.1912 -3.6847,-1.1913 -1.4406,1e-4 -2.7243,0.3972 -3.8509,1.1913 -1.1267,0.7758 -2.0132,1.9117 -2.6597,3.4077 -0.6464,1.4776 -0.9696,3.2414 -0.9696,5.2915" />
      <path
         id="path8669"
         style="font-style:normal;font-variant:normal;font-weight:bold;font-stretch:normal;font-size:16px;font-family:'Arial Rounded MT Bold';-inkscape-font-specification:'Arial Rounded MT Bold, Bold';text-align:center;text-anchor:middle;fill:#ffffff;fill-opacity:1;stroke:none;stroke-width:4.29070091"
         d="m 3088.6529,8911.221 v 21.8588 c 0,1.5145 -0.3602,2.6596 -1.0805,3.4354 -0.7203,0.7757 -1.6345,1.1636 -2.7427,1.1636 -1.1082,0 -2.0132,-0.3971 -2.715,-1.1913 -0.6834,-0.7942 -1.0251,-1.9301 -1.0251,-3.4077 v -21.6371 c 0,-1.4961 0.3418,-2.6227 1.0251,-3.38 0.7018,-0.7572 1.6068,-1.1358 2.715,-1.1359 1.1082,1e-4 2.0224,0.3787 2.7427,1.1359 0.7203,0.7573 1.0805,1.8101 1.0805,3.1583 m -3.7401,-7.8126 c -1.0528,0 -1.9578,-0.3231 -2.715,-0.9697 -0.7388,-0.6464 -1.1082,-1.5606 -1.1082,-2.7427 0,-1.0712 0.3786,-1.9485 1.1359,-2.6319 0.7757,-0.7018 1.6715,-1.0527 2.6873,-1.0528 0.9789,10e-5 1.847,0.3139 2.6042,0.9419 0.7573,0.6281 1.1359,1.5423 1.1359,2.7428 0,1.1636 -0.3694,2.0779 -1.1082,2.7427 -0.7388,0.6465 -1.6161,0.9697 -2.6319,0.9697" />
      <path
         id="path8671"
         style="font-style:normal;font-variant:normal;font-weight:bold;font-stretch:normal;font-size:16px;font-family:'Arial Rounded MT Bold';-inkscape-font-specification:'Arial Rounded MT Bold, Bold';text-align:center;text-anchor:middle;fill:#ffffff;fill-opacity:1;stroke:none;stroke-width:4.29070091"
         d="m 3115.6093,8933.4123 c -1.8285,1.4221 -3.6016,2.4934 -5.3192,3.2137 -1.6993,0.7018 -3.6109,1.0528 -5.7349,1.0528 -1.9393,0 -3.6477,-0.3787 -5.1253,-1.1359 -1.4591,-0.7758 -2.5857,-1.8193 -3.3799,-3.1306 -0.7942,-1.3114 -1.1913,-2.7335 -1.1913,-4.2665 0,-2.0686 0.6557,-3.8324 1.967,-5.2916 1.3113,-1.4591 3.1121,-2.4379 5.4024,-2.9366 0.4801,-0.1107 1.6714,-0.3602 3.5738,-0.748 1.9024,-0.3879 3.5277,-0.7388 4.876,-1.0528 1.3667,-0.3323 2.8443,-0.7295 4.4327,-1.1913 -0.092,-1.9947 -0.4987,-3.4538 -1.219,-4.3773 -0.7018,-0.9419 -2.1702,-1.4129 -4.405,-1.4129 -1.9209,0 -3.3707,0.2677 -4.3496,0.8034 -0.9604,0.5356 -1.7915,1.3391 -2.4934,2.4103 -0.6833,1.0712 -1.1728,1.7823 -1.4683,2.1332 -0.2769,0.3326 -0.8866,0.4987 -1.8285,0.4987 -0.8496,0 -1.5884,-0.2677 -2.2164,-0.8034 -0.6095,-0.5541 -0.9142,-1.2559 -0.9142,-2.1055 0,-1.3299 0.471,-2.6227 1.4129,-3.8787 0.942,-1.2559 2.4103,-2.2902 4.405,-3.1029 1.9947,-0.8126 4.4789,-1.219 7.4525,-1.219 3.3245,0 5.938,0.3971 7.8404,1.1913 1.9023,0.7758 3.2414,2.0132 4.0171,3.7124 0.7942,1.6992 1.1913,3.9525 1.1913,6.7599 0,1.7731 -0.011,3.2784 -0.028,4.5158 0,1.2375 -0.011,2.6135 -0.028,4.128 0,1.4221 0.2309,2.9089 0.6927,4.4604 0.4801,1.5329 0.7202,2.5211 0.7203,2.9644 -1e-4,0.7757 -0.3695,1.4868 -1.1082,2.1332 -0.7204,0.6279 -1.5423,0.942 -2.4657,0.942 -0.7757,0 -1.5422,-0.3602 -2.2995,-1.0805 -0.7572,-0.7388 -1.5607,-1.8008 -2.4102,-3.186 m -0.4987,-10.9433 c -1.1082,0.4064 -2.7243,0.8404 -4.8483,1.3021 -2.1056,0.4433 -3.5647,0.7757 -4.3773,0.9974 -0.8127,0.2032 -1.5884,0.6187 -2.3272,1.2467 -0.7388,0.6095 -1.1082,1.4683 -1.1082,2.5765 0,1.1451 0.4341,2.124 1.3022,2.9367 0.868,0.7942 2.0039,1.1913 3.4076,1.1913 1.496,0 2.872,-0.3235 4.128,-0.9697 1.2744,-0.6649 2.2071,-1.5145 2.7981,-2.5488 0.6833,-1.1451 1.0251,-3.029 1.0251,-5.6517 v -1.0805" />
      <path
         id="path8673"
         style="font-style:normal;font-variant:normal;font-weight:bold;font-stretch:normal;font-size:16px;font-family:'Arial Rounded MT Bold';-inkscape-font-specification:'Arial Rounded MT Bold, Bold';text-align:center;text-anchor:middle;fill:#ffffff;fill-opacity:1;stroke:none;stroke-width:4.29070091"
         d="m 3137.0525,8911.1102 v 0.9143 c 1.3298,-1.7546 2.7797,-3.0383 4.3496,-3.851 1.5884,-0.8311 3.4076,-1.2466 5.4578,-1.2467 1.9947,1e-4 3.777,0.4341 5.3469,1.3022 1.5699,0.8681 2.7427,2.0963 3.5185,3.6846 0.4986,0.9235 0.8219,1.9209 0.9697,2.9921 0.1478,1.0713 0.2216,2.438 0.2216,4.1003 v 14.0738 c 0,1.5145 -0.3511,2.6596 -1.0528,3.4354 -0.6834,0.7757 -1.5792,1.1636 -2.6873,1.1636 -1.1267,0 -2.0409,-0.3971 -2.7428,-1.1913 -0.7018,-0.7942 -1.0527,-1.9301 -1.0527,-3.4077 v -12.6055 c 0,-2.4934 -0.3511,-4.3957 -1.0528,-5.7071 -0.6834,-1.3298 -2.0594,-1.9947 -4.1279,-1.9947 -1.3483,0 -2.5766,0.4063 -3.6847,1.219 -1.1082,0.7942 -1.9209,1.8931 -2.438,3.2968 -0.3694,1.1267 -0.5541,3.2322 -0.5541,6.3166 v 9.4749 c 0,1.533 -0.3602,2.6873 -1.0805,3.4631 -0.7018,0.7572 -1.6161,1.1359 -2.7427,1.1359 -1.0897,0 -1.9855,-0.3971 -2.6873,-1.1913 -0.7019,-0.7942 -1.0528,-1.9301 -1.0528,-3.4077 v -21.8588 c 0,-1.4406 0.3138,-2.5118 0.9419,-3.2137 0.628,-0.7203 1.4868,-1.0804 2.5765,-1.0805 0.6649,1e-4 1.2652,0.1571 1.8008,0.471 0.5356,0.3138 0.9604,0.785 1.2744,1.4129 0.3323,0.628 0.4987,1.3945 0.4987,2.2995" />
    </g>
  </g>
</svg>
