<?xml version="1.0" encoding="UTF-8" standalone="no"?>
<svg
   xmlns:dc="http://purl.org/dc/elements/1.1/"
   xmlns:cc="http://creativecommons.org/ns#"
   xmlns:rdf="http://www.w3.org/1999/02/22-rdf-syntax-ns#"
   xmlns:svg="http://www.w3.org/2000/svg"
   xmlns="http://www.w3.org/2000/svg"
   id="svg88687"
   version="1.1"
   viewBox="0 0 6.3499999 6.3500002"
   height="24"
   width="24">
  <defs
     id="defs88681" />
  <metadata
     id="metadata88684">
    <rdf:RDF>
      <cc:Work
         rdf:about="">
        <dc:format>image/svg+xml</dc:format>
        <dc:type
           rdf:resource="http://purl.org/dc/dcmitype/StillImage" />
        <dc:title></dc:title>
      </cc:Work>
    </rdf:RDF>
  </metadata>
  <g
     transform="translate(0,-290.64999)"
     id="layer1">
    <g
       id="flowRoot88670"
       style="font-style:normal;font-variant:normal;font-weight:normal;font-stretch:normal;font-size:17.33333397px;line-height:1.25;font-family:Genericons;-inkscape-font-specification:Genericons;font-variant-ligatures:normal;font-variant-caps:normal;font-variant-numeric:normal;font-feature-settings:normal;text-align:start;letter-spacing:0px;word-spacing:0px;writing-mode:lr-tb;text-anchor:start;fill:#333333;fill-opacity:1;stroke:none"
       transform="matrix(0.26458334,0,0,0.26458334,-246.32709,127.87185)"
       aria-label="">
      <path
         id="path88678"
         style="font-size:24px;fill:#333333;fill-opacity:1"
         d="m 939.8125,615.95312 q 1.55859,-0.43359 3.1875,-0.43359 1.62891,0 3.1875,0.43359 1.55859,0.4336 2.87109,1.20704 1.3125,0.77343 2.41407,1.88671 1.11328,1.10157 1.88671,2.41407 0.77344,1.3125 1.20704,2.87109 0.43359,1.55859 0.43359,3.1875 0,1.95703 -0.62109,3.78516 -0.60938,1.82812 -1.69922,3.30468 -1.07813,1.46485 -2.58985,2.58985 -1.51172,1.11328 -3.29297,1.69922 -0.41015,0.082 -0.62109,-0.10547 -0.19922,-0.1875 -0.19922,-0.46875 0,-0.0469 0,-1.1836 0.0117,-1.14843 0.0117,-2.10937 0,-0.78516 -0.23437,-1.34766 -0.22266,-0.5625 -0.57422,-0.86718 0.62109,-0.0703 1.13672,-0.17579 0.52734,-0.11718 1.10156,-0.32812 0.58594,-0.21094 1.03125,-0.50391 0.45703,-0.29297 0.8789,-0.75 0.4336,-0.45703 0.71485,-1.03125 0.28125,-0.57422 0.44531,-1.37109 0.16406,-0.79688 0.16406,-1.76953 0,-1.875 -1.23047,-3.21094 0.0703,-0.17578 0.11719,-0.41016 0.0586,-0.23437 0.10547,-0.65625 0.0586,-0.42187 -0.0352,-0.97265 -0.082,-0.5625 -0.30468,-1.13672 -0.0469,-0.0117 -0.12891,-0.0234 -0.082,-0.0234 -0.375,0.0117 -0.29297,0.0234 -0.64453,0.12891 -0.35156,0.10547 -0.9375,0.39843 -0.57422,0.28125 -1.21875,0.71485 -1.41797,-0.39844 -3,-0.41016 -1.58203,0.0117 -3,0.41016 -0.64453,-0.4336 -1.21875,-0.71485 -0.57422,-0.29296 -0.94922,-0.38671 -0.36328,-0.10547 -0.63281,-0.14063 -0.26953,-0.0352 -0.38672,-0.0117 l -0.11719,0.0234 q -0.1875,0.46875 -0.28125,0.9375 -0.082,0.46875 -0.082,0.80859 0,0.32813 0.0469,0.65625 0.0469,0.31641 0.0937,0.48047 0.0586,0.16406 0.10546,0.29297 -1.23046,1.34766 -1.23046,3.21094 0,0.96094 0.16406,1.76953 0.16406,0.79687 0.44531,1.37109 0.28125,0.57422 0.70313,1.03125 0.42187,0.45703 0.8789,0.75 0.45703,0.29297 1.03125,0.51563 0.57422,0.21094 1.08985,0.3164 0.52734,0.10547 1.14843,0.17579 -0.60937,0.53906 -0.76172,1.60546 -0.25781,0.11719 -0.52734,0.19922 -0.26953,0.082 -0.69141,0.11719 -0.41015,0.0234 -0.78515,-0.0703 -0.36328,-0.0937 -0.77344,-0.39844 -0.41016,-0.31641 -0.71484,-0.84375 -0.0234,-0.0469 -0.082,-0.11719 -0.0469,-0.082 -0.22266,-0.28125 -0.16406,-0.21093 -0.36328,-0.36328 -0.19922,-0.16406 -0.51563,-0.30469 -0.3164,-0.14062 -0.65625,-0.16406 -0.0469,0 -0.11718,0 -0.0703,0 -0.22266,0.0469 -0.14063,0.0351 -0.19922,0.10547 -0.0469,0.0586 0.0469,0.21093 0.10546,0.15235 0.41015,0.36328 0.0352,0.0117 0.082,0.0469 0.0586,0.0352 0.22266,0.17578 0.17578,0.14063 0.32812,0.31641 0.15235,0.17578 0.35157,0.5039 0.19922,0.32813 0.35156,0.71485 0.0117,0.0469 0.0469,0.1289 0.0352,0.0703 0.16407,0.31641 0.14062,0.23437 0.32812,0.41016 0.1875,0.17578 0.50391,0.42187 0.32812,0.24609 0.73828,0.32813 0.41016,0.082 0.98437,0.14062 0.57422,0.0586 1.27735,-0.14062 0,0.42187 0,0.89062 0.0117,0.45703 0.0117,0.75 0,0.28125 0,0.39844 0,0.28125 -0.21094,0.46875 -0.19922,0.1875 -0.60938,0.11719 -1.76953,-0.59766 -3.29296,-1.71094 -1.51172,-1.11328 -2.60157,-2.57813 -1.07812,-1.47656 -1.69922,-3.30468 Q 931,629.47656 931,627.51953 q 0,-1.62891 0.43359,-3.1875 0.4336,-1.55859 1.20703,-2.87109 0.77344,-1.3125 1.875,-2.41407 1.11329,-1.11328 2.42579,-1.88671 1.3125,-0.77344 2.87109,-1.20704 z" />
    </g>
  </g>
</svg>
