<?xml version="1.0" encoding="UTF-8" standalone="no"?>
<svg
   xmlns:dc="http://purl.org/dc/elements/1.1/"
   xmlns:cc="http://creativecommons.org/ns#"
   xmlns:rdf="http://www.w3.org/1999/02/22-rdf-syntax-ns#"
   xmlns:svg="http://www.w3.org/2000/svg"
   xmlns="http://www.w3.org/2000/svg"
   width="24"
   height="24"
   viewBox="0 0 6.3499999 6.3500002"
   version="1.1"
   id="svg88687">
  <defs
     id="defs88681" />
  <metadata
     id="metadata88684">
    <rdf:RDF>
      <cc:Work
         rdf:about="">
        <dc:format>image/svg+xml</dc:format>
        <dc:type
           rdf:resource="http://purl.org/dc/dcmitype/StillImage" />
        <dc:title></dc:title>
      </cc:Work>
    </rdf:RDF>
  </metadata>
  <g
     id="layer1"
     transform="translate(0,-290.64999)">
    <g
       aria-label=""
       transform="matrix(0.26458334,0,0,0.26458334,-246.32709,127.79378)"
       style="font-style:normal;font-variant:normal;font-weight:normal;font-stretch:normal;font-size:17.33333397px;line-height:1.25;font-family:Genericons;-inkscape-font-specification:Genericons;font-variant-ligatures:normal;font-variant-caps:normal;font-variant-numeric:normal;font-feature-settings:normal;text-align:start;letter-spacing:0px;word-spacing:0px;writing-mode:lr-tb;text-anchor:start;fill:#000000;fill-opacity:1;stroke:none"
       id="flowRoot88662">
      <path
         d="m 950.5,617.01953 q 1.24219,0 2.12109,0.87891 0.87891,0.8789 0.87891,2.12109 v 15 q 0,1.24219 -0.87891,2.12109 -0.8789,0.87891 -2.12109,0.87891 h -15 q -1.24219,0 -2.12109,-0.87891 Q 932.5,636.26172 932.5,635.01953 v -15 q 0,-1.24219 0.87891,-2.12109 0.8789,-0.87891 2.12109,-0.87891 z m -11.73047,18 v -9.29297 h -3.08203 v 9.29297 z m -1.54687,-10.55859 q 0.79687,0 1.26562,-0.45703 0.48047,-0.46875 0.48047,-1.14844 -0.0117,-0.70313 -0.48047,-1.14844 -0.46875,-0.45703 -1.24219,-0.45703 -0.78515,0 -1.26562,0.45703 -0.48047,0.45703 -0.48047,1.14844 0,0.67969 0.46875,1.14844 0.48047,0.45703 1.24219,0.45703 z m 12.67968,10.55859 v -5.33203 q 0,-2.05078 -0.98437,-3.11719 -0.97266,-1.0664 -2.56641,-1.0664 -0.58594,0 -1.0664,0.15234 -0.46875,0.14062 -0.79688,0.39844 -0.32812,0.24609 -0.52734,0.48047 -0.19922,0.22265 -0.38672,0.5039 v -1.3125 h -3.09375 q 0.0117,0.38672 0.0117,2.71875 0,2.32031 0,4.44141 l -0.0117,2.13281 h 3.09375 v -5.19141 q 0,-0.5039 0.0937,-0.75 0.11719,-0.30468 0.3164,-0.53906 0.19922,-0.24609 0.52735,-0.41015 0.33984,-0.17579 0.73828,-0.17579 0.80859,0 1.18359,0.5625 0.38672,0.55079 0.38672,1.53516 v 4.96875 z"
         style="font-size:24px;fill:#333333;fill-opacity:1"
         id="path88675" />
    </g>
  </g>
</svg>
