<?xml version="1.0" encoding="UTF-8" standalone="no"?>
<svg
   xmlns:dc="http://purl.org/dc/elements/1.1/"
   xmlns:cc="http://creativecommons.org/ns#"
   xmlns:rdf="http://www.w3.org/1999/02/22-rdf-syntax-ns#"
   xmlns:svg="http://www.w3.org/2000/svg"
   xmlns="http://www.w3.org/2000/svg"
   width="32"
   height="32"
   viewBox="0 0 8.4666665 8.4666669"
   version="1.1"
   id="svg8271">
  <defs
     id="defs8265" />
  <metadata
     id="metadata8268">
    <rdf:RDF>
      <cc:Work
         rdf:about="">
        <dc:format>image/svg+xml</dc:format>
        <dc:type
           rdf:resource="http://purl.org/dc/dcmitype/StillImage" />
        <dc:title></dc:title>
      </cc:Work>
    </rdf:RDF>
  </metadata>
  <path
     style="color:#000000;clip-rule:nonzero;display:inline;overflow:visible;visibility:visible;opacity:1;isolation:auto;mix-blend-mode:normal;color-interpolation:sRGB;color-interpolation-filters:linearRGB;solid-color:#000000;solid-opacity:1;fill:#ffffff;fill-opacity:1;fill-rule:nonzero;stroke:none;stroke-width:0.26458335;stroke-linecap:butt;stroke-linejoin:miter;stroke-miterlimit:4;stroke-dasharray:none;stroke-dashoffset:0;stroke-opacity:1;color-rendering:auto;image-rendering:auto;shape-rendering:auto;text-rendering:auto;enable-background:accumulate"
     d="M 0.79375,6.64e-5 C 0.35402,6.64e-5 0,0.3540664 0,0.7937664 v 6.8792003 c 0,0.4396999 0.35402,0.7937 0.79375,0.7937 h 6.8791706 c 0.43974,0 0.79375,-0.3540001 0.79375,-0.7937 V 0.7937664 c 0,-0.4397 -0.35401,-0.7937 -0.79375,-0.7937 z m 4.5909406,1.8024001 c 0.35295,0 0.67233,0.1496 0.89607,0.3881 0.27967,-0.055 0.54208,-0.1575 0.77928,-0.2981 -0.0918,0.2865 -0.28616,0.5271 -0.5395,0.679 0.24826,-0.03 0.48501,-0.096 0.70486,-0.1933 -0.16421,0.2461 -0.37277,0.4623999 -0.61236,0.6357001 0.003,0.053 0.003,0.1055 0.003,0.1586 0,1.6218001 -1.23489,3.4923 -3.4923,3.4923 h 10e-4 c -0.6933502,0 -1.3383502,-0.2027999 -1.8815403,-0.5509001 0.096,0.011001 0.194,0.016999 0.2930001,0.016999 0.5749,0 1.1036902,-0.1962999 1.5239402,-0.5254998 C 2.5229404,5.5953647 2.0701004,5.2407656 1.9139704,4.7531655 c 0.0748,0.014999 0.15151,0.022 0.23047,0.022 0.11217,0 0.2203,-0.014999 0.3235,-0.043 C 1.9061901,4.6196665 1.48349,4.1236665 1.48349,3.5291665 v -0.015999 c 0.1654101,0.092 0.3542201,0.1470999 0.5555201,0.1534999 -0.32932,-0.2199 -0.54622,-0.5957999 -0.54622,-1.0217 0,-0.2248 0.0608,-0.4356 0.1664,-0.617 0.60541,0.7426999 1.5100995,1.2314002 2.5300805,1.2825999 -0.02,-0.09 -0.032,-0.1836999 -0.032,-0.2800998 0,-0.6775001 0.54952,-1.2273001 1.22732,-1.2273001 z"
     id="path8401" />
</svg>
